<?xml version="1.0" encoding="UTF-8" standalone="no"?>
<svg
   xmlns:dc="http://purl.org/dc/elements/1.1/"
   xmlns:cc="http://creativecommons.org/ns#"
   xmlns:rdf="http://www.w3.org/1999/02/22-rdf-syntax-ns#"
   xmlns:svg="http://www.w3.org/2000/svg"
   xmlns="http://www.w3.org/2000/svg"
   xmlns:sodipodi="http://sodipodi.sourceforge.net/DTD/sodipodi-0.dtd"
   xmlns:inkscape="http://www.inkscape.org/namespaces/inkscape"
   inkscape:version="1.0 (4035a4fb49, 2020-05-01)"
   sodipodi:docname="dudeproductslogo.svg"
   id="svg82"
   version="1.1"
   fill="none"
   viewBox="0 0 257 59"
   height="59"
   width="257">
  <metadata
     id="metadata86">
    <rdf:RDF>
      <cc:Work
         rdf:about="">
        <dc:format>image/svg+xml</dc:format>
        <dc:type
           rdf:resource="http://purl.org/dc/dcmitype/StillImage" />
      </cc:Work>
    </rdf:RDF>
  </metadata>
  <sodipodi:namedview
     inkscape:current-layer="svg82"
     inkscape:window-maximized="1"
     inkscape:window-y="-8"
     inkscape:window-x="-8"
     inkscape:cy="21.53887"
     inkscape:cx="126.62077"
     inkscape:zoom="4.4241245"
     showgrid="false"
     id="namedview84"
     inkscape:window-height="1017"
     inkscape:window-width="1920"
     inkscape:pageshadow="2"
     inkscape:pageopacity="0"
     guidetolerance="10"
     gridtolerance="10"
     objecttolerance="10"
     borderopacity="1"
     bordercolor="#666666"
     pagecolor="#ffffff" />
  <path
     d="m -1.5585938,0.44140625 c 0,20.03906275 10e-8,40.07812475 0,60.11718775 86.7057288,0 173.4114538,0 260.1171838,0 0,-20.705729 0,-41.411459 0,-62.1171878 -86.70573,0 -173.411455,10e-8 -260.1171838,0 0,0.66666672 10e-8,1.33333338 0,2.00000005 z"
     style="opacity:1;fill:#000000;fill-opacity:1;fill-rule:evenodd;stroke:#000000;stroke-width:0.88253;stroke-opacity:1"
     id="rect911" />
  <path
     id="path2"
     fill="url(#paint0_linear)"
     d="M256 47H256.499V46.8084L256.371 46.6661L256 47ZM256 56V56.4992H256.499V56H256ZM201 56L200.666 56.3711L200.808 56.4992H201V56ZM196.334 51.1289C196.129 50.9445 195.813 50.9611 195.629 51.1661C195.445 51.371 195.461 51.6866 195.666 51.8711L196.334 51.1289ZM251.871 41.6661C251.687 41.4611 251.371 41.4445 251.166 41.6289C250.961 41.8134 250.945 42.129 251.129 42.3339L251.871 41.6661ZM255.501 47V56H256.499V47H255.501ZM256 55.5008H201V56.4992H256V55.5008ZM201.334 55.6289L196.334 51.1289L195.666 51.8711L200.666 56.3711L201.334 55.6289ZM251.129 42.3339L255.629 47.3339L256.371 46.6661L251.871 41.6661L251.129 42.3339ZM250.647 51.353L255.647 56.353L256.353 55.647L251.353 50.647L250.647 51.353Z" />
  <path
     id="path4"
     fill="url(#paint1_linear)"
     d="M241 27H241.499V26.8084L241.371 26.6661L241 27ZM241 36V36.4992H241.499V36H241ZM201 36L200.666 36.3711L200.808 36.4992H201V36ZM196.334 31.1289C196.129 30.9445 195.813 30.9611 195.629 31.1661C195.445 31.371 195.461 31.6866 195.666 31.8711L196.334 31.1289ZM236.871 21.6661C236.687 21.4611 236.371 21.4445 236.166 21.6289C235.961 21.8134 235.945 22.129 236.129 22.3339L236.871 21.6661ZM240.501 27V36H241.499V27H240.501ZM241 35.5008H201V36.4992H241V35.5008ZM201.334 35.6289L196.334 31.1289L195.666 31.8711L200.666 36.3711L201.334 35.6289ZM236.129 22.3339L240.629 27.3339L241.371 26.6661L236.871 21.6661L236.129 22.3339ZM235.647 31.353L240.647 36.353L241.353 35.647L236.353 30.647L235.647 31.353Z" />
  <path
     id="path6"
     stroke-linecap="round"
     stroke-miterlimit="10"
     stroke-width="0.998403"
     stroke="url(#paint2_linear)"
     d="M75.5 1L80 6V35C80 37.1556 79.8545 39.1678 80.5322 41M72.5 48C72.7262 48.3247 73.7417 49.6576 74 50C77.6102 54.6552 86.8772 57.8019 95 58C95.702 58 99.298 58 100 58C108.123 57.8019 117.49 54.7543 121 50C124.811 44.9486 125.1 41.9524 125 37V6L120.5 1" />
  <path
     id="path8"
     stroke-linecap="round"
     stroke-miterlimit="10"
     stroke-width="0.998403"
     stroke="url(#paint3_linear)"
     d="M132 51.5L137 56H167C173.949 56 179.533 53.5635 184 49C188.566 44.4365 192.099 37.8452 192 31C191.901 24.1548 188.566 17.5635 184 13C183.37 12.3706 182.702 11.7816 182 11.2339M132 10.5L137 15H164C167.739 15 171.194 16.1032 174 18.0125" />
  <path
     id="path10"
     fill="url(#paint4_linear)"
     d="M254 6H254.499V5.80844L254.371 5.66605L254 6ZM254 15V15.4992H254.499V15H254ZM201 15L200.666 15.3711L200.808 15.4992H201V15ZM196.334 10.1289C196.129 9.94451 195.813 9.96112 195.629 10.1661C195.445 10.371 195.461 10.6866 195.666 10.8711L196.334 10.1289ZM249.871 0.666052C249.687 0.461125 249.371 0.444512 249.166 0.628947C248.961 0.813381 248.945 1.12902 249.129 1.33395L249.871 0.666052ZM253.501 6V15H254.499V6H253.501ZM254 14.5008H201V15.4992H254V14.5008ZM201.334 14.6289L196.334 10.1289L195.666 10.8711L200.666 15.3711L201.334 14.6289ZM249.129 1.33395L253.629 6.33395L254.371 5.66605L249.871 0.666052L249.129 1.33395ZM248.647 10.353L253.647 15.353L254.353 14.647L249.353 9.64701L248.647 10.353Z" />
  <path
     id="path12"
     stroke-linecap="round"
     stroke-miterlimit="10"
     stroke-width="0.998403"
     stroke="url(#paint5_linear)"
     d="M1 51.5L6 56H36C42.9489 56 48.5328 53.5635 53 49C57.5664 44.4365 61.0993 37.8452 61 31C60.9007 24.1548 57.5664 17.5635 53 13C52.3702 12.3706 51.702 11.7816 51 11.2339M1 10.5L6 15H33C36.7385 15 40.1942 16.1032 43 18.0125" />
  <path
     id="path14"
     stroke-linecap="round"
     stroke-miterlimit="10"
     stroke-width="0.998403"
     stroke="#5EDFFF"
     d="M236 22H196V31H236V22Z" />
  <path
     id="path16"
     stroke-linecap="round"
     stroke-miterlimit="10"
     stroke-width="0.998403"
     stroke="#5EDFFF"
     d="M251 42H196V51H251V42Z" />
  <path
     id="path18"
     stroke-linecap="round"
     stroke-miterlimit="10"
     stroke-width="0.998403"
     stroke="#5EDFFF"
     d="M249 1H196V10H249V1Z" />
  <path
     id="path20"
     stroke-linecap="round"
     stroke-miterlimit="10"
     stroke-width="0.998403"
     stroke="#5EDFFF"
     d="M109.988 30C109.988 33.4667 109.279 36.6229 106.989 39C104.798 41.2781 100.659 44 92.9926 44C92.893 44 92.0924 44 91.9928 44C84.3265 44 80.1869 41.2781 77.9966 39C75.7066 36.6229 74.9973 33.3676 74.9973 30V1H65V32C65 36.9524 65.2156 39.9486 68.9989 45C72.5832 49.6552 81.9288 52.8019 89.9934 53C90.6903 53 94.2951 53 94.992 53C103.057 52.8019 112.502 49.7543 115.986 45C119.77 39.9486 120.085 36.9524 119.985 32V1H109.988C109.988 1.09905 109.988 30 109.988 30Z" />
  <path
     id="path22"
     stroke-linecap="round"
     stroke-miterlimit="10"
     stroke-width="0.998403"
     stroke="#5EDFFF"
     d="M161 1H132V10H159C168.331 10 175.901 16.873 176 26C176.099 35.127 169.331 42 160 42C147.79 42 143.813 42 132 42V51H162C168.949 51 174.533 48.5635 179 44C183.566 39.4365 187.099 32.8452 187 26C186.901 19.1548 183.566 12.5635 179 8C174.434 3.43651 167.85 1 161 1Z" />
  <path
     id="path24"
     stroke-linecap="round"
     stroke-miterlimit="10"
     stroke-width="0.998403"
     stroke="#5EDFFF"
     d="M30 1H1V10H28C37.3314 10 44.9007 16.873 45 26C45.0993 35.127 38.3314 42 29 42C16.7898 42 12.8132 42 1 42V51H31C37.9489 51 43.5328 48.5635 48 44C52.5664 39.4365 56.0993 32.8452 56 26C55.9007 19.1548 52.5664 12.5635 48 8C43.4336 3.43651 36.8497 1 30 1Z" />
  <path
     id="path26"
     fill="white"
     d="M236 22H196V31H236V22Z" />
  <path
     id="path28"
     fill="white"
     d="M251 42H196V51H251V42Z" />
  <path
     id="path30"
     fill="white"
     d="M249 1H196V10H249V1Z" />
  <path
     id="path32"
     fill="white"
     d="M109.988 30C109.988 33.4667 109.279 36.6229 106.989 39C104.798 41.2781 100.659 44 92.9926 44C92.893 44 92.0924 44 91.9928 44C84.3265 44 80.1869 41.2781 77.9966 39C75.7066 36.6229 74.9974 33.3676 74.9974 30V1H65V32C65 36.9524 65.2156 39.9486 68.9989 45C72.5832 49.6552 81.9288 52.8019 89.9934 53C90.6903 53 94.2951 53 94.9921 53C103.057 52.8019 112.502 49.7543 115.986 45C119.77 39.9486 120.085 36.9524 119.985 32V1H109.988C109.988 1.09905 109.988 30 109.988 30Z" />
  <path
     id="path34"
     fill="white"
     d="M161 1H132V10H159C168.331 10 175.901 16.873 176 26C176.099 35.127 169.331 42 160 42C147.79 42 143.813 42 132 42V51H162C168.949 51 174.533 48.5635 179 44C183.566 39.4365 187.099 32.8452 187 26C186.901 19.1548 183.566 12.5635 179 8C174.434 3.43651 167.85 1 161 1Z" />
  <path
     id="path36"
     fill="white"
     d="M30 1H1V10H28C37.3314 10 44.9007 16.873 45 26C45.0993 35.127 38.3314 42 29 42C16.7898 42 12.8132 42 1 42V51H31C37.9489 51 43.5328 48.5635 48 44C52.5664 39.4365 56.0993 32.8452 56 26C55.9007 19.1548 52.5664 12.5635 48 8C43.4336 3.43651 36.8497 1 30 1Z" />
  <path
     id="path38"
     stroke-linecap="round"
     stroke-miterlimit="10"
     stroke-width="0.998403"
     stroke="white"
     d="M236 22H196V31H236V22Z" />
  <path
     id="path40"
     stroke-linecap="round"
     stroke-miterlimit="10"
     stroke-width="0.998403"
     stroke="white"
     d="M251 42H196V51H251V42Z" />
  <path
     id="path42"
     stroke-linecap="round"
     stroke-miterlimit="10"
     stroke-width="0.998403"
     stroke="white"
     d="M249 1H196V10H249V1Z" />
  <path
     id="path44"
     stroke-linecap="round"
     stroke-miterlimit="10"
     stroke-width="0.998403"
     stroke="white"
     d="M109.988 30C109.988 33.4667 109.279 36.6229 106.989 39C104.798 41.2781 100.659 44 92.9926 44C92.893 44 92.0924 44 91.9928 44C84.3265 44 80.1869 41.2781 77.9966 39C75.7066 36.6229 74.9974 33.3676 74.9974 30V1H65V32C65 36.9524 65.2156 39.9486 68.9989 45C72.5832 49.6552 81.9288 52.8019 89.9934 53C90.6903 53 94.2951 53 94.9921 53C103.057 52.8019 112.502 49.7543 115.986 45C119.77 39.9486 120.085 36.9524 119.985 32V1H109.988C109.988 1.09905 109.988 30 109.988 30Z" />
  <path
     id="path46"
     stroke-linecap="round"
     stroke-miterlimit="10"
     stroke-width="0.998403"
     stroke="white"
     d="M161 1H132V10H159C168.331 10 175.901 16.873 176 26C176.099 35.127 169.331 42 160 42C147.79 42 143.813 42 132 42V51H162C168.949 51 174.533 48.5635 179 44C183.566 39.4365 187.099 32.8452 187 26C186.901 19.1548 183.566 12.5635 179 8C174.434 3.43651 167.85 1 161 1Z" />
  <path
     id="path48"
     stroke-linecap="round"
     stroke-miterlimit="10"
     stroke-width="0.998403"
     stroke="white"
     d="M30 1H1V10H28C37.3314 10 44.9007 16.873 45 26C45.0993 35.127 38.3314 42 29 42C16.7898 42 12.8132 42 1 42V51H31C37.9489 51 43.5328 48.5635 48 44C52.5664 39.4365 56.0993 32.8452 56 26C55.9007 19.1548 52.5664 12.5635 48 8C43.4336 3.43651 36.8497 1 30 1Z" />
  <defs
     id="defs80">
    <linearGradient
       gradientUnits="userSpaceOnUse"
       y2="56"
       x2="220"
       y1="49"
       x1="219"
       id="paint0_linear">
      <stop
         id="stop50"
         stop-opacity="0"
         stop-color="#5EDFFF" />
      <stop
         id="stop52"
         stop-color="#5EDFFF"
         offset="1" />
    </linearGradient>
    <linearGradient
       gradientUnits="userSpaceOnUse"
       y2="35.8928"
       x2="214.563"
       y1="29"
       x1="213.25"
       id="paint1_linear">
      <stop
         id="stop55"
         stop-opacity="0"
         stop-color="#5EDFFF" />
      <stop
         id="stop57"
         stop-color="#5EDFFF"
         offset="1" />
    </linearGradient>
    <linearGradient
       gradientUnits="userSpaceOnUse"
       y2="57.4142"
       x2="104.827"
       y1="36.7033"
       x1="90.0045"
       id="paint2_linear">
      <stop
         id="stop60"
         stop-opacity="0"
         stop-color="#5EDFFF" />
      <stop
         id="stop62"
         stop-color="#5EDFFF"
         offset="1" />
    </linearGradient>
    <linearGradient
       gradientUnits="userSpaceOnUse"
       y2="59"
       x2="162"
       y1="39"
       x1="152"
       id="paint3_linear">
      <stop
         id="stop65"
         stop-opacity="0"
         stop-color="#5EDFFF" />
      <stop
         id="stop67"
         stop-color="#5EDFFF"
         offset="1" />
    </linearGradient>
    <linearGradient
       gradientUnits="userSpaceOnUse"
       y2="14.9902"
       x2="219.266"
       y1="8"
       x1="218.233"
       id="paint4_linear">
      <stop
         id="stop70"
         stop-opacity="0"
         stop-color="#5EDFFF" />
      <stop
         id="stop72"
         stop-color="#5EDFFF"
         offset="1" />
    </linearGradient>
    <linearGradient
       gradientUnits="userSpaceOnUse"
       y2="59"
       x2="31"
       y1="39"
       x1="21"
       id="paint5_linear">
      <stop
         id="stop75"
         stop-opacity="0"
         stop-color="#5EDFFF" />
      <stop
         id="stop77"
         stop-color="#5EDFFF"
         offset="1" />
    </linearGradient>
  </defs>
</svg>
