<?xml version="1.0" encoding="UTF-8" standalone="no"?>


<svg
   xmlns:dc="http://purl.org/dc/elements/1.1/"
   xmlns:cc="http://creativecommons.org/ns#"
   xmlns:rdf="http://www.w3.org/1999/02/22-rdf-syntax-ns#"
   xmlns:svg="http://www.w3.org/2000/svg"
   xmlns="http://www.w3.org/2000/svg"
   xmlns:sodipodi="http://sodipodi.sourceforge.net/DTD/sodipodi-0.dtd"
   xmlns:inkscape="http://www.inkscape.org/namespaces/inkscape"
   width="165.1647"
   height="146.39999"
   viewBox="0 0 43.699828 38.734999"
   version="1.1"
   id="svg8"
   inkscape:version="0.92.0 r15299"
   sodipodi:docname="dude perfect.svg">
  <defs
     id="defs2" />
  <sodipodi:namedview
     id="base"
     pagecolor="#ffffff"
     bordercolor="#666666"
     borderopacity="1.0"
     inkscape:pageopacity="0.0"
     inkscape:pageshadow="2"
     inkscape:zoom="3.6911358"
     inkscape:cx="81.582357"
     inkscape:cy="72.199999"
     inkscape:document-units="mm"
     inkscape:current-layer="layer1"
     showgrid="false"
     fit-margin-top="0"
     fit-margin-left="0"
     fit-margin-right="0"
     fit-margin-bottom="0"
     units="px"
     inkscape:window-width="1280"
     inkscape:window-height="744"
     inkscape:window-x="-4"
     inkscape:window-y="-4"
     inkscape:window-maximized="1" />
  <metadata
     id="metadata5">
    <rdf:RDF>
      <cc:Work
         rdf:about="">
        <dc:format>image/svg+xml</dc:format>
        <dc:type
           rdf:resource="http://purl.org/dc/dcmitype/StillImage" />
        <dc:title></dc:title>
      </cc:Work>
    </rdf:RDF>
  </metadata>
  <g
     inkscape:label="Layer 1"
     inkscape:groupmode="layer"
     id="layer1"
     transform="translate(-77.44443,-303.82624)">
    <g
       id="g16"
       transform="matrix(0.26458333,0,0,0.26458333,5.8979169,219.76812)"
       style="fill:#000000">
	<path
   id="path12"
   d="m 311.1,370.1 c -25.6,24.3 -41,43.8 -39.6,54.8 1,7.8 7.6,11.8 19.5,11.8 10.9,0 22.3,-3.5 22.4,-3.5 l 34.5,-9.1 V 318.7 l -7.2,1.9 -16.4,83.2 -7.2,1.9 c -0.1,0 -3.4,1 -6.8,1 -5.4,0 -7.2,-2.5 -7.7,-4.6 -1.6,-6.4 8.6,-21.9 15.6,-33.9 z"
   class="st0"
   inkscape:connector-curvature="0"
   style="fill:#000000" />

	<path
   id="path14"
   d="m 394.8,411.7 c 25.7,-24.4 41,-43.8 39.7,-54.8 -1,-7.8 -7.6,-11.8 -19.5,-11.8 -10.9,0 -22.3,3.5 -22.4,3.5 l -34.5,9.1 v 105.4 l 7.2,-1.9 16.4,-83.1 7.2,-1.9 c 0.1,0 3.4,-1 6.8,-1 5.4,0 7.2,2.5 7.7,4.6 1.7,6.4 -8.6,21.8 -15.7,33.8 z"
   class="st0"
   inkscape:connector-curvature="0"
   style="fill:#000000" />

</g>
  </g>
  <style
     id="style10"
     type="text/css">
	.st0{fill:#FFFFFF;}
</style>
</svg>
