<?xml version="1.0" encoding="utf-8"?>
<!-- Generator: Adobe Illustrator 24.3.0, SVG Export Plug-In . SVG Version: 6.00 Build 0)  -->
<svg version="1.0" id="katman_1" xmlns="http://www.w3.org/2000/svg" xmlns:xlink="http://www.w3.org/1999/xlink" x="0px" y="0px"
	 viewBox="0 0 658.22 464.44" style="enable-background:new 0 0 658.22 464.44;" xml:space="preserve">
<style type="text/css">
	.st0{fill:#252D60;}
	.st1{fill-rule:evenodd;clip-rule:evenodd;fill:#CD2529;}
	.st2{fill-rule:evenodd;clip-rule:evenodd;fill:#252D60;}
</style>
<g>
	<g>
		<g>
			<path class="st0" d="M408.6,201.06c7,0,13.15,1.42,18.46,4.26c5.3,2.84,9.42,6.72,12.36,11.65l-15.9,5.9
				c-1.98-2.49-4.33-4.44-7.06-5.84c-2.72-1.4-5.69-2.1-8.89-2.1c-2.34,0-4.26,0.38-5.75,1.15s-2.23,1.77-2.23,3
				s0.94,2.19,2.82,2.88c1.88,0.69,5.63,1.58,11.25,2.66c3.2,0.66,6.01,1.35,8.42,2.05c2.41,0.71,4.75,1.58,7.01,2.64
				c2.26,1.05,4.11,2.22,5.55,3.52c1.44,1.29,2.58,2.84,3.42,4.64c0.84,1.8,1.26,3.82,1.26,6.04c0,5.86-2.62,10.64-7.85,14.33
				c-5.24,3.7-12.28,5.54-21.13,5.54c-7.73,0-14.4-1.47-20.02-4.42c-5.62-2.94-9.88-6.96-12.78-12.03l15.85-5.72
				c1.62,2.43,3.98,4.43,7.08,5.99s6.69,2.34,10.75,2.34c2.51,0,4.51-0.38,6-1.13s2.23-1.77,2.23-3.06c0-1.32-1.07-2.37-3.22-3.13
				c-2.15-0.77-6.39-1.78-12.73-3.04c-7.89-1.62-13.84-3.87-17.84-6.74c-4-2.87-6-6.74-6-11.6c0-3.79,1.25-7.19,3.77-10.21
				c2.51-3.02,5.97-5.37,10.38-7.05C398.22,201.9,403.15,201.06,408.6,201.06z"/>
		</g>
	</g>
	<g>
		<g>
			<path class="st0" d="M229.65,203.17h-36.89v28.44c0,3.7-0.15,7.04,0,9.89v21.88h20v-11.9c16.51-2.58,39.11-13.72,39.11-27.88v0
				C251.87,211.34,241.92,203.17,229.65,203.17z M229.43,224.83c0,6.32-13.11,10.33-13.11,10.33l-2.89,1.11v-18.22h10.67
				c2.95,0,5.33,2.39,5.33,5.33V224.83z"/>
			<path class="st0" d="M354.54,203.17h-36.89v28.44c0,3.7-0.15,7.04,0,9.89v21.88h20v-11.9c16.51-2.58,39.11-13.72,39.11-27.88v0
				C376.76,211.34,366.81,203.17,354.54,203.17z M354.32,224.83c0,6.32-13.11,10.33-13.11,10.33l-2.89,1.11v-18.22h10.67
				c2.95,0,5.33,2.39,5.33,5.33V224.83z"/>
			<polygon class="st0" points="277.06,239.64 303.18,239.64 303.18,226.22 277.06,226.22 277.06,217.52 310.52,217.52 
				310.52,202.51 257.81,202.51 257.81,263.17 311.09,263.17 311.09,248.15 277.06,248.15 			"/>
			<polygon class="st0" points="446.34,207.44 446.34,263.44 466.35,263.44 466.35,201.44 			"/>
		</g>
	</g>
	<g>
		<path class="st1" d="M466.14,173.19c-19.72-5.34-42.28-8.36-66.25-8.36c-23.87,0-46.34,3-66,8.29c-3.17,0.85-6.27,1.76-9.29,2.73
			c-0.04,0.02-0.08,0.03-0.13,0.04c-18.94,5.05-40.48,7.91-63.32,7.91c-25.19,0-48.79-3.47-69.07-9.54
			c22.18-53.98,75.28-91.99,137.26-91.99c23.45,0,45.63,5.44,65.35,15.14C426.73,113.16,452.26,140.13,466.14,173.19z"/>
		<path class="st2" d="M192.08,291.25c19.72,5.34,42.28,8.36,66.25,8.36c23.87,0,46.34-3,66-8.29c3.17-0.85,6.27-1.76,9.29-2.73
			c0.04-0.02,0.08-0.03,0.13-0.04c18.94-5.05,40.48-7.91,63.32-7.91c25.19,0,48.79,3.47,69.07,9.54
			c-22.18,53.98-75.28,91.99-137.26,91.99c-23.45,0-45.63-5.44-65.35-15.14C231.49,351.28,205.96,324.31,192.08,291.25z"/>
	</g>
	<path class="st0" d="M329.11,395.94c-90.28,0-163.72-73.45-163.72-163.72S238.83,68.5,329.11,68.5s163.72,73.45,163.72,163.72
		S419.39,395.94,329.11,395.94z M329.11,73.5c-87.52,0-158.72,71.2-158.72,158.72c0,87.52,71.2,158.72,158.72,158.72
		s158.72-71.2,158.72-158.72C487.83,144.7,416.63,73.5,329.11,73.5z"/>
</g>
</svg>
