<?xml version="1.0" encoding="utf-8"?>
<!-- Generator: Adobe Illustrator 25.0.1, SVG Export Plug-In . SVG Version: 6.00 Build 0)  -->
<svg version="1.0" id="katman_1" xmlns="http://www.w3.org/2000/svg" xmlns:xlink="http://www.w3.org/1999/xlink" x="0px" y="0px"
	 viewBox="0 0 284.7 178" style="enable-background:new 0 0 284.7 178;" xml:space="preserve">
<style type="text/css">
	.st0{fill:#FFFFFF;}
	.st1{fill:#DB0A40;}
	.st2{fill:url(#splash-4_1_);}
	.st3{fill:url(#splash-3.4_1_);}
	.st4{fill:url(#splash-3.3_1_);}
	.st5{fill:url(#splash-3.2_1_);}
	.st6{fill:url(#splash-3.1_1_);}
	.st7{fill:#FAD50A;}
	.st8{fill:#F2940A;}
	.st9{fill-rule:evenodd;clip-rule:evenodd;fill:#D2003C;}
</style>
<g id="logo_x2F_rbcom_x2F_desktop">
	<g id="f-rbmn-logo-logotype" transform="translate(1.000000, 0.000000)">
		<g id="color---simplified">
			<path id="outline" class="st0" d="M71.7,102.7c1.1-0.3,2.1-0.9,3.3-0.8c1.9,0.3,2.8-0.1,4.2-1c1.1,0.6,2.3,1.9,4.9,1.8
				c0.8,0.1,1.8-0.4,1.6-1.2c-0.1-0.8,1.4-0.4,1.5-1.4l0,0c0.2-0.6,0-0.6-0.9-1.1c-1.5-0.8-1.5-2.4-2.6-3.4
				c-0.1-0.1-0.5-0.4-0.5-0.6c-3.8-10.3,0.7-6.8-7.9-16.5c-2.5-1.8-6-6-9.2-5.8c-2.9,0.1-3.6,1.7-5.8,2.4c-2.7,1-4.3,1.2-6.5,3.2
				c-1.4,1.2-3.3-0.3-5.3,1.8c-4.2,4.3-4.7,0.3-11.6,5.7c-3.6,3.1-8.5,0.9-4.5-3.1c2-1.4,4.6-3.2,3.6-6c-0.3-2.1-3.3-2.6-5.2-2.9
				c-1.1-0.2-2.9-1.6-3.5-2c-1.8,2.1-0.9,6.8,3,7.3c0.2,0,0.3,0.1,0.3,0.3c0,0.1,0,0.3-0.1,0.4c-2.8,2.2-3.4,3.1-3.5,5.7
				c-0.2,3.5,2.6,6.1,6.3,6c0.6,0,1.2,0,1.7-0.1c0.1,0,0.2,0,0.2,0.1c0.3,1.6,0.4,3.5,0.9,4c0.1,0.2,0.1,0.4-0.1,0.5
				c-1.2,1.1-3.6-0.1-4.2,1.9c-0.4,0.8-0.3,1.9-1.2,2.3c-0.6-0.1-0.8-1.1-1.7-1.1c-0.9,0-2.4,0.7-3,2.1c-0.7,0.5-1.4,0.2-1.7,1.2
				c-0.1,0-0.2,0.6-0.2,0.8c0,0.5-0.2,0.9-0.4,1.3c-0.7,0.8,0.1,1.9,1.1,2c0.8,0.1,1.3,0.4,1.5,0.1c0.1,0,0.1-0.1,0.2-0.1
				c0.2-0.2,0.4-0.1,0.6,0c0.4,0,1.1,0.4,1.6,0.3c0.1,0,0.2,0,0.3,0.1c1.5,0,2-0.6,2.5-1.4c0-0.4,0.3-0.6,0.4-0.9
				c0.1-0.1,0.2-0.2,0.4-0.2c0.3,0.1,0.9,0.2,1,0.2c2.3,0.2,2.9-2.2,4.8-2.4c0.5,0,1.3,0.1,3.1,0.3c1.2,0.1,2.4-0.8,3.5-1.4
				c0.5-0.3,1-0.4,1.4-1c0.5-0.4,1.2-3.1,1.9-3.1c1.5,0,2.9-0.5,4.3-0.5c1.8-0.1,3.6,0.4,5.3-0.2c0.1,0,0.4-0.1,0.5,0.1
				c0.2,0.3,0.9,0.5,0.7,0.9c0,0.1-0.2,0.2-0.3,0.3c-0.3,0-0.8,0-1.1,0.4c-0.1,0.1-0.6,0.2-0.7,0c-1,0.1-3.7-0.3-4,1.1
				c0.3,1.1,1.2,3.9,3,3.6c0.1,0,0.3,0.1,0.3,0.2c0.7,1.4,1.9,2.3,3,2.3s3.9-1,6-2h0.9c1.3-0.1,1.8-0.5,2.5-1.9
				C69.4,100.4,68.6,103.3,71.7,102.7L71.7,102.7z M69.7,96.2c-0.3,0.3-0.6,0.4-1,1c-0.7-0.3-0.8-1.2-0.9-1.6
				c0.6-0.1,1.9-0.4,2.6-0.5C70,95.5,69.8,95.7,69.7,96.2L69.7,96.2z"/>
			<path id="bull" class="st1" d="M85.5,99.5c-1.3-0.7-1.8-2.2-2.6-3.3c-2.1-2.2-2.5-5.9-3-9c-0.6-3-3.1-5.2-4.9-7.5
				c-1.6-1.3-5.6-5.1-7.6-5.8c-2.5-1.1-4.8,0.9-6.9,1.9c-1.7,0.7-3.5,0.9-5.1,2.2c-2.4,3.1-3.8,0.6-6.6,3c-4.1,4.3-5.7,0.5-11.3,5.6
				c-1.5,0.9-2.9,1.8-4.8,1.7c-2.9-0.1-3.9-4-1.6-5.8c1.6-1.8,5.5-3.6,3.5-6.5c-2-1.8-4.4-1-6.8-3c-1.1,1.7,0.3,4.1,2.1,4.6
				c0.7,0.5,2.5-0.3,2.8,0.8c-0.8,1.5-2.9,2.4-3.8,3.8c-2.4,2.8,0,7.5,3.4,7.7c1.3,0.4,2.9-0.6,3.7-0.2c0.1,1,0,1.9,0.2,2.8
				c0.1,1,1.2,2.1,0.6,3c-1,0.9-2.3,1.3-3.6,1.2c-0.7,0.8-0.8,1.7-1.2,2.6c-0.5,0.9-1.5,1.3-2.2,1.7c-0.5,0.7-0.9,1.5-1.9,1.6
				c-0.6,0.7-0.7,1.6-0.9,2.5c2.5,0.7,3.1,0.3,4.4-1.8c0.5-0.5,1.2-0.1,1.7,0c1.4-0.2,2.5-1.1,3.5-2c3.7-1,3.6,1.4,7.9-1.3
				c0.7-0.3,1-1.1,1.3-1.7c0.4-0.7,1.3-2,0.1-2.3c-3.2,6.4-8.7,1.2-12.9,6.1c-0.6,0.2-0.1-0.8,0-1c3-4.4,10-0.5,12.3-6.3
				c0.4-0.9,0.2-4.4,1.2-4.3c0.1,0,0.4,0.1,0.4,0.3c-1,4.3-0.3,5.6,4.2,4.9c1.6-0.5,6.1,1.1,6-1c0-0.4-0.4-0.6,0-0.9
				c0.1-0.1,0.4,0,0.5,0.1c0.3,1.7,1.8,3,3.2,3.7c2.9,2,1.7,4.6-1.6,4.4c-1.1-0.6-1.4-1.7-2.2-2.6c-0.9-0.8-2.2-0.4-3.3-0.2
				c-0.5,0.8,0.8,1.8,1,2.6c0.5,0.3,1.2-0.2,1.6,0.4c0.4,0.6,0.6,1.2,1.2,1.6c1.8,1.7,5.4-1.3,7.3-1.4c1.6,0.2,2.4-1.3,2.9-2.5
				c0.9-1.7-1.5-3.3-1.7-4.8c-0.6-0.2-1.3-0.6-1.7,0c0.3,0.8,2,3.5,1.9,4.3c-0.2,0.6-0.7,2-1.5,1.9c0.2-0.7,0.5-1.5,0.5-2.3
				c-0.4-0.9-2-3.4-2.1-4.2c0.3-0.9,2-0.4,2.6-1.2c0.7-1.1,0.9-2.2,1.1-3.6c0-0.1,0.2-0.3,0.3-0.3c1,0.6,0,3.7-0.6,4.3
				c-0.1,1,2,0.3,2.4,0c0.8,0.2,2.4-0.6,2.7-0.1c-0.5,0.6-0.8,1.3-1,2c-0.6,0.7-1.6,1.2-1.6,2.2c0.1,0.6,1-0.4,1,0.4
				c-0.9,1.1-0.8,1.4-0.5,2.6c0.9,1.3,2.7,0.2,3.8-0.1c1.9-0.8,4.1,0.4,5.7-1.6c0.4,0,0.8,0.3,1,0.6c1.1,1.2,2.7,1.8,4.3,1.7
				c0.7-0.5-0.8-0.8-1-1c-0.7-0.4-1.6-1-1.8-1.8c-0.3-1.1-1.1-2.2-1.6-3.2c2.4,0,2.6,5,6.1,4.2c0.2-0.1,0.2-0.2,0.1-0.4L85.5,99.5z
				 M68.6,84.2L68.6,84.2c-0.1,0.1-0.2,0.1-0.4,0.1l0,0c-0.3-1-0.4-2.1-0.9-2.9c-0.3-0.3-0.6-0.6-0.4-1.1l0,0
				c0.2-0.2,0.4-0.2,0.6-0.1c0.9,0.7,1.1,1.7,1.1,2.8C68.8,83.2,68.7,83.8,68.6,84.2L68.6,84.2 M76.8,98.5L76.8,98.5
				c-0.5,0.1-0.9,0.2-1.4,0.2h-0.1c-0.6-0.6,0.6-1.7,1.3-1.6c0.1,0,0.2,0,0.3,0C77.3,97.2,77.2,98.2,76.8,98.5 M79.5,92.6
				c-0.1,0.2-0.3,0.7-0.5,0.7c-0.2,0-0.3,0-0.3-0.2c0-0.7-0.1-1.5-0.7-1.9c-1.3-2.1-1.7,0.5-2.1,0.2l0,0c-0.3-0.6,0.2-1.2,0.4-1.7
				l0,0c0.1-0.1,0.2-0.3,0.3-0.4c0.2-1.2,1.4-0.5,1.6,0.2c0.7,0.9,1.5,1.8,1.4,2.8C79.5,92.2,79.5,92.4,79.5,92.6 M28.2,101.9
				c0.7-0.4,1.1-1.1,1.4-1.7c-0.2-0.3-0.5-0.8-1-0.6c-0.5,0.4-1,0.7-1.5,1C26.9,101.3,27.5,102.1,28.2,101.9 M26,101.9
				c-1.2,0.5-0.6,2-1.3,2.7c0,0.1-0.2,0.3,0,0.4c0.5,0.1,0.9,0.3,1.5,0.4c0.3-0.9,0.5-1.9,0.7-2.7C26.7,102.4,26.4,102,26,101.9
				 M58.8,99.7c0.4,0.5,0.4,1.2,0.9,1.6c0.6,0.1,1.2-0.1,1.7-0.5c0.3-0.2-0.1-0.5-0.2-0.8c-0.3-0.4-0.1-1.2-0.8-1.2
				c-0.8,0.2-1.6,0-2.3,0.2C58,99.3,58.7,99.3,58.8,99.7"/>
			
				<linearGradient id="splash-4_1_" gradientUnits="userSpaceOnUse" x1="-387.6139" y1="610.1875" x2="-386.6913" y2="610.1875" gradientTransform="matrix(42.24 0 0 -26.6667 16443.4414 16371.333)">
				<stop  offset="0" style="stop-color:#1885C8"/>
				<stop  offset="0.14" style="stop-color:#1881C3"/>
				<stop  offset="0.32" style="stop-color:#1A74B3"/>
				<stop  offset="0.52" style="stop-color:#1B6099"/>
				<stop  offset="0.73" style="stop-color:#1E4475"/>
				<stop  offset="0.96" style="stop-color:#212047"/>
				<stop  offset="1" style="stop-color:#22183D"/>
				<stop  offset="1" style="stop-color:#22183D"/>
			</linearGradient>
			<path id="splash-4" class="st2" d="M108.2,92.8c0-1.7-0.7-3.5-1.9-4.7l0,0l-0.1-0.1c-0.6,2.3-1.4,4.3-3.8,7.9
				c-0.9,1.4-2.5,1.4-3.5,2.7c-0.2-0.1-0.2-0.3-0.5,0c1.3-1.4-0.2-0.7,0.4-1.3c2.2-2.4,4.2-4.6,5.1-7.9c-0.4,0.5-0.6,0.6-0.9,1.1
				c0.4-1.4,0.7-2.6,1-4l-0.4-0.2c-1.4,4.6-3.6,8.6-7.7,11.3c-5.3,3.9-0.8,2.6,0.1,1.8c-6.7,6.8-21.6,11.2-30.1,4.3
				c1.2,1.2,2.8,2.6,4.2,3.5c-0.9-0.2-1.5-0.8-2.4-1.1c0,0,2,2.6,8.1,3.3c0.4,0,0.8,0.1,1.1,0.1c8.2,0.6,8.7-0.8,14.4-2
				c0.3,0.1-1.8,1.2-4.7,2c-4.6,1.7-9.9,0.4-13.7,0h0l0,0c0.1,0,0.7,0.3,3.8,1.4c-0.2,0.1-1.2,0.2-5.4-1.6
				c10.3,5.9,21.4,1.4,30.5-5.3c0,0,0,0.1,0,0.1c0.1,0,0.2,0,0.3,0c0,0.1,0,0.1-0.8,1c1.5-1.2,2.3-3.2,4-4.3
				c-0.8,1.7-1.9,2.9-3.9,4.8c0.2-0.1,0.3-0.2,0.4-0.4c-3,2.8-7,5.6-13.1,7c0.4-0.1,0.9-0.1,1.3-0.3c-0.8,0.2-0.8,0.2-1.1,0.4
				c0.2,0,0.2,0,1.3-0.2c-0.6,0.3-1.3,0.4-3.1,0.8C97.4,111.4,108,103.4,108.2,92.8z"/>
			
				<linearGradient id="splash-3.4_1_" gradientUnits="userSpaceOnUse" x1="-373.031" y1="562.409" x2="-371.9862" y2="562.4805" gradientTransform="matrix(17.0667 0 0 -7.68 6451.1924 4427.8667)">
				<stop  offset="0.24" style="stop-color:#52BCE8"/>
				<stop  offset="1" style="stop-color:#3F88B9"/>
			</linearGradient>
			<path id="splash-3.4" class="st3" d="M97.9,106.8c-4.1,2.6-8.5,4.8-13.5,5.4c6,0.2,13.2-4.1,17.1-7.7
				C100.2,105.2,99.1,106,97.9,106.8z"/>
			
				<linearGradient id="splash-3.3_1_" gradientUnits="userSpaceOnUse" x1="-375.5459" y1="457.0668" x2="-374.5459" y2="457.0668" gradientTransform="matrix(18.9867 0 0 -2.9867 7202.7661 1474.0515)">
				<stop  offset="0.54" style="stop-color:#52BCE8"/>
				<stop  offset="1" style="stop-color:#49A4D3"/>
			</linearGradient>
			<path id="splash-3.3" class="st4" d="M91.4,107.5c-5.8,1.2-6.1,2.7-14.3,2.1c-0.6,0.2-4.1,0-4.6-0.2c0,0,0.3,0.1,0.5,0.2h0
				c0.9-0.1,6.6,1.1,8.4,0.9C83.7,110.6,91.1,108.3,91.4,107.5z"/>
			
				<linearGradient id="splash-3.2_1_" gradientUnits="userSpaceOnUse" x1="-344.0929" y1="587.1416" x2="-343.8126" y2="587.2347" gradientTransform="matrix(7.8933 0 0 -12.16 2817.3423 7232.3452)">
				<stop  offset="0" style="stop-color:#3A78AC"/>
				<stop  offset="0.29" style="stop-color:#34689E"/>
				<stop  offset="0.86" style="stop-color:#253E78"/>
				<stop  offset="1" style="stop-color:#21336E"/>
			</linearGradient>
			<path id="splash-3.2" class="st5" d="M104.3,86.6l-0.2-0.1c-0.3,1.4-0.6,2.6-1,4c0.4-0.5,0.6-0.6,0.9-1c-0.9,3.3-2.9,5.5-5.1,7.9
				c-0.6,0.6,0.9,0-0.4,1.3c0.3-0.3,0.2-0.2,0.5,0c1-1.3,2.6-1.3,3.6-2.7c2.4-3.6,3.2-5.6,3.8-7.9c0,0,0,0,0.1,0.1l0,0
				C105.7,87.5,105,87,104.3,86.6L104.3,86.6z"/>
			
				<linearGradient id="splash-3.1_1_" gradientUnits="userSpaceOnUse" x1="-384.558" y1="603.4477" x2="-383.497" y2="603.5927" gradientTransform="matrix(32 0 0 -19.84 12377.0938 12069.6797)">
				<stop  offset="0" style="stop-color:#52BCE8"/>
				<stop  offset="0.25" style="stop-color:#51B9E6"/>
				<stop  offset="0.41" style="stop-color:#4EB0DE"/>
				<stop  offset="0.56" style="stop-color:#48A1D0"/>
				<stop  offset="0.69" style="stop-color:#418CBD"/>
				<stop  offset="0.78" style="stop-color:#3977AB"/>
				<stop  offset="0.85" style="stop-color:#33669C"/>
				<stop  offset="0.98" style="stop-color:#243B75"/>
				<stop  offset="1" style="stop-color:#21336E"/>
			</linearGradient>
			<path id="splash-3.1" class="st6" d="M77.2,104.5c-3.8-2.1-1-0.7,2.3,0.1c2.4,0.6,4.9,0.8,7.4,0.7c3.9-1.5,7.3-3.7,9.2-5.8
				c-0.9,0.8-5.3,2.1-0.1-1.8c4.1-2.8,6.3-6.8,7.7-11.4c-1.1-0.4-2.2-0.7-3.3-0.8c-1.6,3.8-1.8,6.4-5.3,8.5
				c-3.9,2.6-1.5,1.9-1.4,1.9c0.3-0.1,0.6-0.3,0.9-0.5c-1.5,2.4-4.1,4-7.3,4.7c-0.1,1-1.6,0.7-1.5,1.4c0.2,0.9-0.8,1.3-1.6,1.2
				c-2.6,0-3.8-1.2-4.9-1.9c-1.7,1.1-2.4,1.2-4.5,1c-1,0-2,0.5-3,0.8C73.2,104,79.6,105.7,77.2,104.5z M97.2,94
				c0.7-1.4,2.2-2.2,2.7-4c-0.1,0.3,0.5,0.4,0.7,0.4c0.9-0.1,0.9-1.3,1.2-1.6c-0.2,2.7-2,4.9-4,6.7c-0.3-0.2-0.6-0.2-0.9,0
				C96.8,95,97.8,94.3,97.2,94z"/>
			<path id="splash-2" class="st7" d="M100.7,78.1c-2.5-1.4-5.4-1.8-8.1-2.9l0,0c4,0.9,8.9,1.7,11.9,4.8c0,0,0.2,0.1,0.2,0.1
				c0.3,0.2,0.6,0.8,0.9,0.6c-6.3-12.3-25.4-10.9-34.4-5.9c0.5,0.4,1,0.8,1.5,1.3c1.7-1.4,8.7-2.4,9.3-2.3l0,0
				c-2.3,0.5-6.2,1.9-8.6,2.9l0.3,0.3c4.8-1.7,12.1-2.9,17.3-1.6c-4.1,0.5-11.5,0.4-16.4,2.4c1.3,1,2.6,2.9,3.7,4.3
				c8-3.9,12.6-4.1,16.7-3.5c0.4,0.2-2.9,0.4-2.1,0.6c0.9,0.2,2.5-0.3,2.9-0.3c0.2-0.1,1.8,0,2.3,0.1c1.9,0.5,0.1,0.7-0.5,0.5
				c-0.3,0-0.6,0-1,0c-0.7,0.1-1.6,0.3-2.3,0.4c-0.2,0-2.4,0-2.1,0.3c0.4,0,2.3,0.3,2.7,0.3c0.3-0.1,0.6,0,0.9-0.1
				c0.1-0.1,0.7-0.2,0.7,0.1c-0.6,1.4-2.5,0.3-3.9,0.6c-1.3,0.1-2.6,0.7-2.8,0.5c4.2-2.5-6,1.2-5.8,1.9c0,0,0,0,0,0
				c0,0.6,1.6-0.3,1.9-0.2c0.7-0.1,1.6-0.5,2.3-0.6c0.5,0,0.7,0.3,1.2,0.1c1.1,0,2.1-0.5,3.2-0.7c0.1,0,0.8,0.3,0.7,0.4
				c2,1.8,3.1,0.3,5.3,0.9c0.4,0-0.1,0.3-0.2,0.3c-1.2,0.8-2.6,1-3.9,1.1c-0.2,0-0.5,0-0.7,0.1c-0.4,0-0.9,0.2-1.3,0.1
				c-1.3,0-2.5,0.2-3.7,0.8c-0.4,0.1-0.9,0.2-1.2,0.5c-0.3,0.3-0.8,0.2-1.1,0.5c-0.5,0.3-4.2,1.1-3.8,1.8c0,0,0,0,0,0h0c0,0,0,0,0,0
				c6.1-0.9,13.4-5.2,21.2-2l0,0c3.2,1.6,5,4.5,3.7,9.9c0,0,0.1-0.4,0.1-0.4l0,0c0.4-1.3,0.7-2.4,0.7-3.7
				C109.4,87.6,105.8,80.9,100.7,78.1z M93.4,73.5c1.1,0.3,3.2,0.6,3.9,1.3c-1.8,0-2.6-0.8-2.6-0.8C94.3,74,93.2,73.6,93.4,73.5z"/>
			<path id="splash-1" class="st8" d="M73.5,76.8l-0.7-0.6c1.8-1.4,8.7-2.4,9.4-2.3c-1,0.2-2.1,0.5-3.1,0.8
				C77.2,75.4,75.2,76.1,73.5,76.8z M109.3,86.7c-1.1-8-3.8-15.1-13.7-17.7c6.1,1.5,6.5,2.2,7.3,2.7c-4.7-4.4-12.3-5.9-20-4.6
				c4.5-1.4,11.8-1.3,16.4,1.6c-11-6.8-24.2-3.8-32.3,3.9c1.5,0.3,2.8,1.3,4.1,2.2c9.2-5,28.2-6.4,34.5,5.9
				c-0.4,0.2-0.6-0.4-0.9-0.6c0,0-0.2-0.1-0.2-0.1c-3-3-7.8-3.9-11.9-4.8c2.7,1.1,5.6,1.4,8.1,2.8c6.6,3.8,9.5,11.5,7.2,17.8l0,0
				l0,0C109,93,109.5,89.9,109.3,86.7L109.3,86.7z M86.9,75c-4.2,0-9.5,0.8-13.1,2.2l0.8,0.7c4.3-1.6,11.5-2,15-2.2
				C93.5,75.5,88.3,75,86.9,75z M94.7,74.1c-0.1,0,0.9,0.8,2.6,0.8c-0.7-0.7-2.7-1.1-3.9-1.3C93.3,73.7,94.4,74,94.7,74.1L94.7,74.1
				z"/>
		</g>
		<g id="f-rbmn-logotype" transform="translate(100.000000, 7.000000)">
			<path id="Shape" class="st9" d="M127.4,89.6c0,1.8,1.5,3.3,3.4,3.3c1.9,0,3.4-1.5,3.4-3.3V78.8h5.9v12c0,4-4.2,7.3-9.4,7.3
				c-5.2,0-9.4-3.3-9.4-7.3v-12h6L127.4,89.6L127.4,89.6L127.4,89.6z M153.6,97.4h6V65.9h-6V97.4z M143.5,97.4h6V65.9h-6V97.4z
				 M33.7,72.5h-3.3v24.9H24v-30h11c5,0,9,4,9,8.9c0,4.1-2.9,7.7-6.9,8.6l8.8,12.6h-7.5L32,87.7v-7.2h1.5c2.4,0,4.3-1.8,4.3-3.9
				C37.8,74.3,36,72.5,33.7,72.5L33.7,72.5"/>
			<path id="Shape_1_" class="st9" d="M51.6,85.9c-0.1-2,1.4-3.8,3.5-3.9c2-0.1,3.8,1.4,3.9,3.5c0,0.1,0,0.3,0,0.4H51.6z M64.8,89.3
				c0-0.4,0.1-0.8,0.1-1.3c0.1-6.5-4.2-10.1-9.7-10.1s-9.9,4.5-9.9,10s4.4,10,9.9,10c4.2,0,7.4-1.9,9.1-4.8l-4.9-2.3
				c-0.7,1.4-2.2,2.3-3.8,2.3c-2.3,0-4.1-1.7-4.1-3.7v-0.2C51.6,89.3,64.8,89.3,64.8,89.3z M78.4,92.8C76,92.8,74,90.6,74,88
				c0-2.7,2-4.8,4.4-4.8s4.4,2.2,4.4,4.8C82.8,90.7,80.8,92.8,78.4,92.8z M88.7,97.4V65.9h-6v14.9c-1.6-1.6-3.8-2.5-6-2.5
				c-4.9,0-9,4.4-9,9.8s4,9.8,9,9.8c2.3,0,4.5-1,6.1-2.6v2.1H88.7L88.7,97.4z M109.1,92.2h-5.7V72.5h4c1.8,0,3.2,1.6,3.2,3.4
				c0,1.8-1.4,3.2-3.2,3.2h-2.1v5.4h3.8c2.1,0,3.7,1.7,3.7,3.8v0.1C112.7,90.5,111.4,92.1,109.1,92.2 M114.1,81.1
				c1.7-1.5,2.6-3.6,2.6-5.8c0-2-0.8-3.9-2.2-5.4c-1.4-1.6-4-2.4-7.4-2.4H96.9v30h13.3c5.1-0.1,9.2-3.9,9.2-8.6
				C119.3,85.4,118.1,83,114.1,81.1"/>
		</g>
	</g>
</g>
</svg>
