<?xml version="1.0" encoding="utf-8"?><!-- Uploaded to: SVG Repo, www.svgrepo.com, Generator: SVG Repo Mixer Tools -->
<svg width="800px" height="800px" viewBox="0 0 24 24" id="Layer_1" data-name="Layer 1" xmlns="http://www.w3.org/2000/svg"><defs><style>.cls-1{fill:none;stroke:#ffa500;stroke-miterlimit:10;stroke-width:1.91px;}</style></defs><path class="cls-1" d="M14.86,6.85V8.14a36,36,0,0,1-.47,5.77h0l-.8,4.77L13,22.5h-1.9l-.64-3.82-.8-4.77h0a36,36,0,0,1-.47-5.77V6.85a8.23,8.23,0,0,1,1.38-4.56h0A1.78,1.78,0,0,1,12,1.5h0a1.78,1.78,0,0,1,1.48.79h0A8.23,8.23,0,0,1,14.86,6.85Z"/><polygon class="cls-1" points="10.41 18.68 11.04 22.5 6.27 22.5 6.27 19.64 10.41 18.68"/><polygon class="cls-1" points="17.73 19.64 17.73 22.5 12.96 22.5 13.59 18.68 17.73 19.64"/><polyline class="cls-1" points="9.61 13.91 1.5 15.82 1.5 12 9.14 8.18"/><polyline class="cls-1" points="14.86 8.18 22.5 12 22.5 15.82 14.39 13.91"/><line class="cls-1" x1="3.41" y1="8.18" x2="3.41" y2="11.05"/><line class="cls-1" x1="20.59" y1="8.18" x2="20.59" y2="11.05"/></svg>