<?xml version="1.0" encoding="utf-8"?>
<!-- Uploaded to: SVG Repo, www.svgrepo.com, Generator: SVG Repo Mixer Tools -->
<svg width="800px" height="800px" viewBox="0 -58.34 417.439 417.439" xmlns="http://www.w3.org/2000/svg"><defs><style>.a{fill:#211715;}.b{fill:#ffffff;}.c{fill:#87cce3;}.d{fill:#b5886a;}.e{fill:#f4b3b3;}.f{fill:#7a7473;}</style></defs><path class="a" d="M379.321,215.855c-10.832-.007-21.663-.507-32.5-.229-2.569.066-2.579,4.066,0,4,10.833-.278,21.664.222,32.5.229,2.574,0,2.578-4,0-4Z"/><path class="a" d="M415.507,202.039c-18.3-.009-36.607-.173-54.905-.589-2.575-.058-2.574,3.942,0,4,18.3.416,36.6.58,54.905.589,2.574,0,2.578-4,0-4Z"/><path class="a" d="M290.88,1.457c-.476,1.244-.971,2.481-1.473,3.715q-.43,1.059-.872,2.112c-.1.228.2-.48.044-.1l-.089.21c-.072.169-.145.339-.218.508q-.2.465-.408.929a2.173,2.173,0,0,0-.2,1.541,2,2,0,0,0,3.655.478c1.222-2.738,2.349-5.525,3.419-8.326a2.008,2.008,0,0,0-1.4-2.46,2.056,2.056,0,0,0-2.46,1.4Z"/><path class="a" d="M301.166,9.878q-3.463,2.25-7.041,4.319a2,2,0,1,0,2.019,3.454q3.576-2.069,7.041-4.319a2,2,0,1,0-2.019-3.454Z"/><path class="a" d="M306.569,22.2q-2.048-.105-4.088-.3-.978-.093-1.956-.207-.489-.057-.976-.119c-.056-.007-.673-.089-.385-.05l-.384-.054a2.205,2.205,0,0,0-1.541.2,2.043,2.043,0,0,0-.919,1.2,2.021,2.021,0,0,0,1.4,2.46c2.939.415,5.888.718,8.852.869a2.014,2.014,0,0,0,2-2,2.045,2.045,0,0,0-2-2Z"/><path class="b" d="M333.5,297.481a9.688,9.688,0,0,0,5.072-8.316c0-5.583-2.741-7.512-3.757-8.425-2.145-1.931-6.5-2.335-9.208-1.2a9.775,9.775,0,0,0-5.613-10.07c-5.931-2.5-11.674.355-13.215,3.719-.438-4.887-3.865-11.49-12.753-11.612-8.03-.11-11.739,4.409-12.8,7.8,0,0-2.375,5.065-2.747,6.07a10.394,10.394,0,0,0-4.342-.6,10.513,10.513,0,0,0-9.365,6.6c-2.41,5.433.026,13.069,5.4,15.607,2.919,1.379,6.258,1.472,9.485,1.54,16.72.352,32.421.009,48.664.009A11.291,11.291,0,0,0,333.5,297.481Z"/><path class="a" d="M283.549,277.192a9.764,9.764,0,0,0-5.38-3.949,13.555,13.555,0,0,0-7.546.213,13.077,13.077,0,0,0-8.457,9.55,15.218,15.218,0,0,0,3.088,12.658c3.547,4.34,9.168,4.82,14.4,4.933,12.623.272,25.248.128,37.872.049q4.673-.03,9.346-.039a16.806,16.806,0,0,0,7.251-1.214,11.393,11.393,0,0,0,6.063-7.484,12.487,12.487,0,0,0-2.685-11.4,11.522,11.522,0,0,0-12.426-2.894l2.46,2.46a11.77,11.77,0,0,0-7.66-12.782c-5.091-1.818-12.266-.327-14.824,4.89l3.727,1.009c-.478-4.863-3.008-9.533-7.444-11.858a17.21,17.21,0,0,0-17.753,1.43,12.676,12.676,0,0,0-4.287,6.087c-.8,2.453,3.064,3.5,3.858,1.063a8.374,8.374,0,0,1,1.254-2.381,9.459,9.459,0,0,1,2.308-2.118,13.625,13.625,0,0,1,9.037-1.723,10.569,10.569,0,0,1,9.027,9.5c.175,1.777,2.767,2.969,3.727,1.01,1.724-3.517,6.461-4.276,9.875-3.2,3.2,1.01,5.841,4.551,5.3,8.006-.208,1.324.879,3.08,2.46,2.461a7.642,7.642,0,0,1,8.215,1.538,6.664,6.664,0,0,1,1.8,2.991,10.529,10.529,0,0,1,.411,2.732c.007.28,0,.557-.007.836,0,.1-.016.2-.024.293-.03.388.043-.24,0,.025a7.535,7.535,0,0,1-3.34,5.47,8.838,8.838,0,0,1-4.5,1.246c-2.684.073-5.379.012-8.064.026-10.79.055-21.581.188-32.371.094q-4.18-.036-8.359-.12a28.486,28.486,0,0,1-7.153-.718,9.506,9.506,0,0,1-6.662-7.476,9.814,9.814,0,0,1,3.361-9.9c2.977-2.276,8.278-2.58,10.648.7a2.057,2.057,0,0,0,2.736.718,2.017,2.017,0,0,0,.718-2.737Z"/><path class="b" d="M106.633,264.16a9.689,9.689,0,0,0,5.071-8.316c0-5.583-2.741-7.512-3.756-8.426-2.145-1.93-6.5-2.334-9.208-1.2a9.777,9.777,0,0,0-5.613-10.071c-5.932-2.5-11.674.356-13.215,3.72-.439-4.887-3.866-11.49-12.754-11.612-8.03-.11-11.739,4.408-12.8,7.8,0,0-2.122,5.229-2.463,6.191a10.052,10.052,0,0,0-4.626-.72,10.513,10.513,0,0,0-9.365,6.6c-2.41,5.433.026,13.069,5.4,15.607,2.919,1.378,6.258,1.471,9.485,1.539,16.72.352,32.421.01,48.663.01A11.293,11.293,0,0,0,106.633,264.16Z"/><path class="a" d="M56.684,243.871a9.761,9.761,0,0,0-5.379-3.949,13.546,13.546,0,0,0-7.546.213,13.077,13.077,0,0,0-8.457,9.55,15.218,15.218,0,0,0,3.088,12.658c3.547,4.34,9.168,4.819,14.4,4.932,12.622.273,25.248.129,37.872.05q4.673-.03,9.345-.039a16.793,16.793,0,0,0,7.252-1.215,11.391,11.391,0,0,0,6.063-7.484,12.486,12.486,0,0,0-2.685-11.4,11.524,11.524,0,0,0-12.426-2.9l2.46,2.461a11.771,11.771,0,0,0-7.66-12.782c-5.091-1.818-12.267-.328-14.824,4.89l3.727,1.009c-.479-4.863-3.008-9.533-7.444-11.859a17.212,17.212,0,0,0-17.753,1.43,12.672,12.672,0,0,0-4.287,6.087c-.8,2.454,3.063,3.5,3.857,1.064a8.425,8.425,0,0,1,1.254-2.381,9.426,9.426,0,0,1,2.309-2.118,13.626,13.626,0,0,1,9.037-1.724,10.572,10.572,0,0,1,9.027,9.5c.175,1.777,2.767,2.969,3.727,1.01,1.724-3.518,6.461-4.276,9.875-3.2,3.2,1.01,5.841,4.551,5.3,8.006-.208,1.323.879,3.08,2.46,2.46a7.64,7.64,0,0,1,8.214,1.539,6.657,6.657,0,0,1,1.8,2.991,10.529,10.529,0,0,1,.411,2.732c.007.28,0,.557-.007.836,0,.1-.016.2-.024.293-.03.388.043-.241,0,.024a7.53,7.53,0,0,1-3.339,5.47,8.818,8.818,0,0,1-4.5,1.246c-2.684.074-5.379.013-8.064.027-10.791.055-21.581.188-32.372.094q-4.179-.036-8.359-.121a28.436,28.436,0,0,1-7.152-.717,9.506,9.506,0,0,1-6.662-7.476,9.812,9.812,0,0,1,3.361-9.9c2.977-2.276,8.277-2.58,10.648.7a2.057,2.057,0,0,0,2.736.717,2.015,2.015,0,0,0,.717-2.736Z"/><path class="b" d="M388.074,116.275c3.27-9.431,5.912-17.289,5.624-17.557a1.5,1.5,0,0,0-1.048-.422c-6.021.274-11.63,1.121-16.234,3.45s-7.373,4.844-11.222,8.3a285.369,285.369,0,0,0-26.93,28.412l-1.055,1.285c15.152-.17,30.764-.323,42.839-.444C382.3,132.77,385.4,124,388.074,116.275Z"/><path class="b" d="M314.915,140.012c29.036-.391,69.377-.738,82.523-.9,4.354-.055,10.251.225,11.481,4.1,1.692,5.334-4.308,8.883-8.912,10.469l-80.242,27.645c-7.435,2.561-14.907,5.132-22.571,6.3-8.041,1.226-25.049,2.542-33.138,2.854-16.388.633-147.315,4.34-214.1,2.276-11.344-.849-23.211-3.052-32.4-7.894-3.765-1.984-7.151-5.511-7.476-9.9s2.27-7.59,5.266-10.195c9.417-8.186,19.067-16.514,30.178-20.579,9.018-3.3,18.556-3.622,27.958-3.918,7.69-.243,14.049-.489,20.84-.684Z"/><path class="c" d="M49.119,166.67c-.246-.065-.491-.13-.736-.2-7.9-2.149-15.939-5.172-21.169-11.609a85.424,85.424,0,0,1,11.231-7.454c2.076,2.955,5.5,4.621,8.956,5.606,3.343.95,6.385,1.59,9.728,2.56,1,.287,3.152.62,3.944,1.288,1.223,1.036,1.074,1.4,1.1,2.986s-.421,5.952-1.2,7.1a2.355,2.355,0,0,1-1.867,1.006C56.029,168.277,52.555,167.577,49.119,166.67Z"/><path class="a" d="M314.915,142.012q32.219-.432,64.439-.709,6.072-.061,12.144-.125a94.453,94.453,0,0,1,10.055.056c1.769.171,4.5.517,5.364,2.345.98,2.068-.519,4.1-2.069,5.352a19.887,19.887,0,0,1-6.122,3.078q-5.059,1.751-10.124,3.488l-40.121,13.822c-13.088,4.509-26.112,9.4-39.358,13.422-10.247,3.116-20.737,4.06-31.365,4.885-5.736.446-11.475.786-17.224.978-10.346.345-20.695.618-31.043.88q-24.831.628-49.667,1.075-28.877.519-57.756.737c-18.15.12-36.3.136-54.453-.145-8.977-.138-18.008-.061-26.9-1.414A80.623,80.623,0,0,1,23.1,185.22c-4.751-1.884-10.982-4.961-11.042-10.91-.029-2.86,1.634-5.209,3.609-7.124,2.21-2.144,4.647-4.1,7-6.084a108.645,108.645,0,0,1,15.052-10.986,52.825,52.825,0,0,1,17.75-6.462c6.714-1.162,13.568-1.241,20.361-1.463,6.164-.2,12.328-.429,18.494-.608,2.568-.075,2.579-4.075,0-4-6.684.194-13.366.445-20.049.659-6.889.22-13.807.43-20.6,1.686-12.991,2.4-23.629,9.779-33.564,18.118-4.232,3.553-9.757,7.221-11.527,12.738S9.7,181.71,14.071,185c4.7,3.541,11.025,5.421,16.66,6.828a102.357,102.357,0,0,0,19.225,2.923c17.555.923,35.254.635,52.826.617q30.185-.03,60.367-.536,27.654-.422,55.3-1.082,18.92-.447,37.836-1.014a370.287,370.287,0,0,0,40.469-3.045,109.334,109.334,0,0,0,19.577-5.086c6.958-2.352,13.891-4.777,20.835-7.17L378.791,163.1q10.5-3.617,21-7.234c4.207-1.456,9.151-3.662,10.887-8.116,1.842-4.724-1.247-8.819-5.8-9.99-3.74-.963-7.735-.645-11.562-.6-20.692.229-41.384.409-62.076.651q-8.163.095-16.327.2c-2.572.035-2.579,4.035,0,4Z"/><path class="a" d="M37.873,149.885c3.5,3.706,8.406,4.962,13.176,6.16,2.32.583,4.622,1.237,6.947,1.8a6.38,6.38,0,0,1,1.921.663c.351.216.182.077.251.273-.086-.242-.008.08,0,.144.02.3.008.623.008.927a22.5,22.5,0,0,1-.463,4.572c-.075.359-.159.717-.266,1.068-.063.2.036.251-.2.455.251-.22-.086,0-.282.026a12.276,12.276,0,0,1-1.974.058c-4.746-.133-9.644-1.762-14.089-3.339a33.253,33.253,0,0,1-12.967-7.76c-1.8-1.847-4.626.982-2.828,2.829a36.535,36.535,0,0,0,13.4,8.3c5.048,1.93,10.631,3.679,16.053,3.955,2.319.119,5.009,0,6.271-2.271.95-1.708,1.083-4,1.251-5.9.146-1.64.391-3.694-.494-5.164-1.175-1.952-3.393-2.4-5.431-2.9-3.253-.8-6.517-1.652-9.745-2.553a16.143,16.143,0,0,1-7.707-4.164c-1.77-1.877-4.595.956-2.828,2.828Z"/><path class="a" d="M50.822,154.459a63.77,63.77,0,0,0-3.871,10.087,2,2,0,1,0,3.857,1.063,39.039,39.039,0,0,1,1.615-4.883q.109-.273.222-.545c.042-.1.085-.207.129-.31q-.14.33-.006.015.233-.54.469-1.078c.343-.778.693-1.553,1.039-2.33a2.052,2.052,0,0,0-.717-2.737,2.024,2.024,0,0,0-2.737.718Z"/><path class="a" d="M38.3,162.742c1.3-1.553,2.618-3.09,4.037-4.535.672-.683,1.365-1.345,2.085-1.978q.576-.507,1.175-.988c.1-.078.193-.154.29-.231.3-.235-.189.14.009-.008.223-.166.444-.334.669-.5a2.169,2.169,0,0,0,.919-1.2,2.043,2.043,0,0,0-.2-1.541,2.022,2.022,0,0,0-2.736-.717,51.5,51.5,0,0,0-9.074,8.862,2.044,2.044,0,0,0,0,2.829,2.024,2.024,0,0,0,2.828,0Z"/><path class="b" d="M188.142,195.247l-3.452-.717c-.254,3.123-.509,6.27-.765,9.387-.04.456-.081.919-.16,1.371a9.679,9.679,0,0,0,5.284-2.6,11.944,11.944,0,0,0,2.9-6.648Z"/><path class="b" d="M180.72,208.652l-.2.076c-6.227,2.355-12.853,3.429-19.43,4.493a30.806,30.806,0,0,1-8.188.271c-4.082-.435-6.945-.727-10.518-3.052a6.85,6.85,0,0,1-2.4-2.982c-1.451-2.639-1.638-5.693-1.675-8.3-.03-2.155-.11-7.033,2.045-10.05a4.819,4.819,0,0,1,4.171-2.265l3.727.139c12.021,2.476,24.208,5,36.448,7.545-.256,3.123-.511,6.27-.767,9.387a13.99,13.99,0,0,1-.2,1.595,3.913,3.913,0,0,1-.779,1.749A5.039,5.039,0,0,1,180.72,208.652Z"/><path class="b" d="M141.505,187.861a6.31,6.31,0,0,0-1.159,1.25c-2.155,3.017-2.075,7.9-2.045,10.05.037,2.6.224,5.658,1.675,8.3a6.85,6.85,0,0,0,2.4,2.982c.432.281.854.532,1.269.758a4.519,4.519,0,0,0,2.9.108c1.838-.617,2.825-3.207,3.089-4.184a22.9,22.9,0,0,0,.879-6.5,25.329,25.329,0,0,0-.8-7.677c-.44-1.569-1.62-5.13-4.417-5.9l-.735-.2-.047,0A4.416,4.416,0,0,0,141.505,187.861Z"/><path class="a" d="M182.556,196.19c-.23,2.814-.247,5.744-.71,8.528a2.228,2.228,0,0,1-1.523,1.953,34.284,34.284,0,0,1-3.852,1.318,110.119,110.119,0,0,1-16.4,3.378,33.2,33.2,0,0,1-8.4-.008,20.423,20.423,0,0,1-5.962-1.366,9.677,9.677,0,0,1-2.84-1.718,7.291,7.291,0,0,1-1.262-2.017,15.753,15.753,0,0,1-1.3-6.91,24.97,24.97,0,0,1,.407-5.944c.443-1.972,1.42-4.551,3.805-4.558,2.573-.007,2.578-4.007,0-4-6.212.018-8.015,6.926-8.2,11.953-.178,4.777.114,10.7,3.722,14.3a15.466,15.466,0,0,0,7.4,3.623,38.883,38.883,0,0,0,9.324.911,68.987,68.987,0,0,0,9.905-1.327,98.347,98.347,0,0,0,9.754-2.139c2.957-.835,7.288-1.657,8.741-4.723a14.91,14.91,0,0,0,.9-5.217q.248-3.021.493-6.041c.209-2.565-3.792-2.552-4,0Z"/><path class="b" d="M134.06,184.07c-6.351-2.275-7.38-6.7-6.816-9.548,1.25-3.585,6.932-4.218,10.985-4.325,25.835-.682,59.874.963,84.484,3.145,1.5.133,4.733.858,9.9,3.331,15.838,7.357,23.029,9.727,40.964,16.971,10.357,4.183,19.551,9.515,30.717,9.226,2.456-.063,5.033-.43,7.279.566s3.769,4.088,2.181,5.963c-12.9,8.43-29.827,5.649-44.927,2.555-43.953-9-90.817-18.88-134.77-27.884"/><path class="a" d="M134.592,182.142c-2.278-.847-4.58-2.381-5.262-4.73a5.121,5.121,0,0,1-.182-2.25,3.674,3.674,0,0,1,1.961-1.781c2.419-1.1,5.272-1.139,7.878-1.2q5.221-.129,10.445-.135c15.024-.038,30.051.475,45.05,1.3q10.779.592,21.542,1.439,2.438.193,4.872.4c.673.058,1.349.107,2.021.18.058.006-.3-.057.1.019.258.049.516.095.773.151a41.287,41.287,0,0,1,8.419,3.147c11.89,5.5,24.092,10.2,36.255,15.053,7.154,2.854,14.128,6.322,21.438,8.759a45.308,45.308,0,0,0,11.1,2.3,54.459,54.459,0,0,0,5.7-.024c1.558-.05,3.563-.146,4.8.993a1.9,1.9,0,0,1,.53,2.627l.718-.718c-8.952,5.764-19.832,5.942-30.076,4.678-5.4-.667-10.735-1.795-16.062-2.888q-9.022-1.851-18.043-3.714-36.644-7.566-73.271-15.207-20.347-4.221-40.7-8.4c-2.513-.515-3.587,3.34-1.063,3.857q45.286,9.278,90.533,18.752,22.311,4.63,44.634,9.213c12.55,2.558,26.39,5.11,38.833.695a36.349,36.349,0,0,0,4.464-1.92c1.374-.707,3.054-1.446,3.836-2.845,1.516-2.712-.086-6.047-2.407-7.7-2.889-2.053-6.715-1.315-10.014-1.316a36.8,36.8,0,0,1-10.018-1.5c-6.822-1.932-13.181-5.207-19.736-7.853-5.934-2.4-11.9-4.718-17.847-7.077-5.059-2-10.091-4.072-15.067-6.276-3.084-1.366-6.118-2.847-9.212-4.188a34.149,34.149,0,0,0-7.173-2.417,72.584,72.584,0,0,0-7.568-.731q-4.712-.38-9.426-.7-10.072-.695-20.158-1.169c-13.586-.641-27.193-1.023-40.8-.911-3.029.025-6.067.03-9.092.171a21.886,21.886,0,0,0-7.953,1.573,6.629,6.629,0,0,0-4.226,5.478,9.259,9.259,0,0,0,1.538,5.794A13.654,13.654,0,0,0,133.529,186c2.416.9,3.459-2.966,1.063-3.857Z"/><path class="a" d="M144.768,188.979c1.554.49,2.326,2.326,2.792,3.752a22,22,0,0,1,.957,6.786,21.291,21.291,0,0,1-1.015,7.717,4.213,4.213,0,0,1-1.366,2.079,1.908,1.908,0,0,1-1.179.171,3.9,3.9,0,0,1-.851-.241c-.125-.049-.422-.29-.123-.037-1.953-1.654-4.8,1.162-2.828,2.829a6.076,6.076,0,0,0,8.926-1.178c1.891-2.674,2.346-6.393,2.425-9.573.135-5.378-.405-14.188-6.675-16.162-2.461-.775-3.514,3.086-1.063,3.857Z"/><path class="a" d="M185.04,207.072a10.874,10.874,0,0,0,5.5-3.062,14.019,14.019,0,0,0,3.156-6.283,2,2,0,0,0-3.857-1.064,12.561,12.561,0,0,1-.41,1.5c-.079.229-.187.452-.258.682l.1-.236c-.035.08-.071.159-.107.238-.046.1-.093.2-.141.293a12.08,12.08,0,0,1-.731,1.268c-.115.173-.237.34-.358.508-.24.338.257-.31.012-.017-.077.093-.154.187-.233.278a6.178,6.178,0,0,1-.676.648c-.281.238.412-.293.093-.074-.072.049-.142.1-.215.151-.169.116-.343.227-.52.332q-.312.186-.638.349c-.083.042-.5.307-.58.272.276-.116.312-.133.11-.052l-.126.048q-.191.071-.384.135c-.264.086-.532.16-.8.225a2.019,2.019,0,0,0-1.4,2.461,2.041,2.041,0,0,0,2.46,1.4Z"/><path class="a" d="M339.678,139.869c5.738-6.984,11.852-13.674,18.221-20.087q4.63-4.66,9.518-9.05a45.071,45.071,0,0,1,10.364-7.435,28.21,28.21,0,0,1,6.963-2.159c1.336-.256,2.681-.439,4.034-.572.949-.092,3.249-.605,3.91-.121l-.717-.717c-.087-.119-.255-.944-.254-.857,0,.229.167-.592.037-.291a5.215,5.215,0,0,0-.171.731c-.191.733-.416,1.458-.641,2.181-.743,2.388-1.545,4.758-2.348,7.126-2.218,6.532-4.508,13.039-6.787,19.55q-1.856,5.3-3.7,10.606c-.844,2.438,3.019,3.485,3.857,1.063,2.425-7.012,4.9-14.009,7.336-21.017,1.981-5.693,4.04-11.379,5.77-17.156.465-1.553,1.273-3.524-.365-4.673a4.955,4.955,0,0,0-3.439-.621c-1.276.078-2.551.188-3.821.341a43.609,43.609,0,0,0-7.243,1.41c-8.74,2.607-15.482,9.4-21.862,15.6a282.557,282.557,0,0,0-21.493,23.322c-1.621,1.974,1.193,4.82,2.829,2.829Z"/><path class="b" d="M385.591,152.29c8.176,5.46,13.091,9.965,19.777,14.221a5.009,5.009,0,0,1,1.391.984,2.668,2.668,0,0,1-.249,3.165c-1.816,2.329-5.4,1.915-8.262,1.2-13.82-3.471-36.673-12.427-49.11-19.382"/><path class="a" d="M384.581,154.017c5.343,3.581,10.335,7.624,15.562,11.364,1.164.832,2.343,1.643,3.542,2.423q.481.314.97.611c.205.124.6.585.485.2a1.14,1.14,0,0,1-.494,1.121c-1.671,1.483-4.855.458-6.717-.027a224.382,224.382,0,0,1-31.658-11.215,172.926,172.926,0,0,1-16.123-7.747c-2.251-1.254-4.271,2.2-2.019,3.454,10.806,6.02,22.486,10.681,34.133,14.794a126.408,126.408,0,0,0,16.471,5.022c2.977.61,6.542.762,8.858-1.569a5.111,5.111,0,0,0,1.483-4.574c-.388-1.779-1.8-2.509-3.2-3.415-6.654-4.3-12.69-9.484-19.272-13.9-2.144-1.438-4.149,2.026-2.019,3.454Z"/><path class="b" d="M232.788,90.862a8.734,8.734,0,0,1-4.609,1.5l-.164.006c.771,1.574,5.5,14.039,8.046,19.611a1.994,1.994,0,0,0,3.068.724,199.924,199.924,0,0,0,15.3-14.228l-1-1.184c-.142-.167-.283-.344-.425-.521a6.343,6.343,0,0,1-1.418-2.474,6.1,6.1,0,0,1-.083-1.546q.105-2.927.2-5.86a21.315,21.315,0,0,1-3.417.564,33.2,33.2,0,0,1-6.278-.19,37.285,37.285,0,0,1-5.011-1.17,25.081,25.081,0,0,1-4.2,4.764"/><path class="d" d="M265.762,76.51a30.9,30.9,0,0,0,2.565-4.453l.462.037a6.42,6.42,0,0,0,2.868-.334A6.7,6.7,0,0,1,274.3,75.3a11.4,11.4,0,0,1-.219,5.948,23.124,23.124,0,0,1-3.494,7.474,31.681,31.681,0,0,0-2.533,3.685c-.682,1.327-1.39,3.39-.893,4.8.418,1.185,1.269,2.46.86,3.031l-1.934,2.163a57.5,57.5,0,0,0-10.278-4.78c-1.017,1.389-1.908.271-2.8-.847a6.343,6.343,0,0,1-1.418-2.474,6.1,6.1,0,0,1-.083-1.546q.105-2.927.2-5.86a22.529,22.529,0,0,0,9.855-5.546A29.181,29.181,0,0,0,265.762,76.51Z"/><path class="e" d="M234.473,108.32c-2.606-6.224-5.935-14.941-6.491-16.012-5.476.086-11.782.257-17.524,1.927-2,.582-3.942,1.359-5.878,2.134L196.8,99.488v54.628c3.409-.005,6.044-.015,7.381-.032l26.631-.765c9.42-.191,18.662-.389,28.008-.46.633-4.365,1.865-11.413,2.745-16.577,7.342,9.1,14.431,15.518,25.037,20.314a13.253,13.253,0,0,0,6.319.923,11.632,11.632,0,0,0,5.132-3.029c5.915-6.748,8.638-14.86,9.762-22.658a1.3,1.3,0,0,0-.988-1.437c-6.682-1.637-12.9-3.487-19.459-5.523a1.447,1.447,0,0,0-1.779.872c-.172.454-.34.871-.5,1.267-4.036-3.46-10.6-16.707-14.946-21.766-3.872-3.271-10.169-6.229-14.733-7.763a203.9,203.9,0,0,1-16.272,15.225,1.994,1.994,0,0,1-3.068-.724C235.593,110.958,235.05,109.7,234.473,108.32Z"/><path class="a" d="M249.721,86.206c-.07,2.215-.156,4.43-.22,6.645a6.7,6.7,0,0,0,.7,3.377,14.189,14.189,0,0,0,1.814,2.482,2.009,2.009,0,0,0,2.829,0,2.055,2.055,0,0,0,0-2.829c-.144-.172-.285-.346-.425-.522-.02-.025-.362-.493-.13-.166a8.922,8.922,0,0,1-.676-1.063c.186.358-.027-.089-.055-.187-.032-.121-.059-.242-.08-.365q.049.316.018-.046c.021-.439.012-.883.027-1.323q.107-3,.2-6a2.018,2.018,0,0,0-2-2,2.04,2.04,0,0,0-2,2Z"/><path class="a" d="M271.4,74.155c1.537,1.79,1.345,4.178.805,6.338a21.453,21.453,0,0,1-3.224,7.042c-1.42,2.044-2.976,3.893-3.654,6.345a7.224,7.224,0,0,0-.215,3.383c.182.858,1.068,1.954.992,2.783l.273-1.009-.087.192a2.061,2.061,0,0,0,.718,2.736,2.015,2.015,0,0,0,2.736-.718,4.1,4.1,0,0,0-.259-3.635,3.623,3.623,0,0,1-.191-3.031c.841-2.642,3.084-4.662,4.407-7.066,2.7-4.9,4.541-11.516.527-16.189-1.68-1.956-4.5.885-2.828,2.829Z"/><path class="a" d="M228.179,94.366a11.567,11.567,0,0,0,2.953-.5,8.758,8.758,0,0,0,2.666-1.277,2.2,2.2,0,0,0,.919-1.195,2.042,2.042,0,0,0-.2-1.541,2.018,2.018,0,0,0-1.195-.92,1.939,1.939,0,0,0-1.541.2,6.529,6.529,0,0,1-1.391.785l.477-.2a9.748,9.748,0,0,1-2.4.648L229,90.3c-.271.035-.543.06-.816.071a2.1,2.1,0,0,0-1.414.586,2,2,0,0,0,1.414,3.414Z"/><path class="b" d="M303.761,122.489c-.308-5.408-.72-12.012-.813-15.728,0,0-.009-.365-.014-.88,3.241-4,4.012-9.354,3.48-13.548-.415-3.267-.592-6.884-3.042-9.084-1.351-1.213-4.132-1.589-5.539-.442-.924-1.381-3.272-2.162-4.531-2.218-1.222-.056-2.236.849-3.174,1.691-1.037-1.25-4.613-1.481-6.1-.833s-2.512,3.34-2.306,4.951l-.05.6a6.18,6.18,0,0,0-1.311.594c-1.717,1.018-2.576,3.025-3.061,4.96a14.019,14.019,0,0,0,.676,9.757c2.189,4.258,6.986,6.37,11.425,8.165a61.445,61.445,0,0,1-1.239,13.557l-.195,1.029c5.455,1.689,10.684,3.247,16.161,4.66-.045-.993-.076-1.664-.076-1.664C303.986,126.546,303.881,124.61,303.761,122.489Z"/><path class="a" d="M290.088,124.56a76.466,76.466,0,0,0,1.31-14.089,2.075,2.075,0,0,0-1.468-1.928c-2.952-1.2-6.091-2.5-8.395-4.768-2.6-2.565-3.217-6.173-2.536-9.674.292-1.5.7-3.354,1.895-4.428a4.632,4.632,0,0,1,4.092-.778c.648.115.857.173,1.156.781a1.611,1.611,0,0,1,.194,1.274c-.426,1.154-2.087,1.307-3.1,1.266-2.574-.1-2.57,3.9,0,4,3.472.138,7.438-2.078,7.142-6.014a5.678,5.678,0,0,0-3.187-4.831,10.019,10.019,0,0,0-5.458-.448c-4.278.843-6.137,5.044-6.73,8.942-.655,4.305.092,8.576,2.972,11.951,2.8,3.284,7,5,10.894,6.584l-1.468-1.929a70.486,70.486,0,0,1-1.167,13.025c-.473,2.516,3.382,3.595,3.857,1.064Z"/><path class="a" d="M283.719,86.4c-.094-1.1.328-2.89,1.394-3.2.975-.285,2.962-.175,3.6.5a2.038,2.038,0,0,0,2.828,0c.713-.636,1.312-1.23,2.265-1.018a4.132,4.132,0,0,1,2.3,1.14,2.029,2.029,0,0,0,2.736.718c1.648-1.191,3.522.16,4.294,1.691.989,1.959,1.117,4.436,1.332,6.586.463,4.624-.682,9.458-4.014,12.829-1.812,1.833,1.015,4.663,2.828,2.828,4.634-4.689,5.733-11.1,4.977-17.42-.376-3.141-.829-6.425-3.088-8.832-2-2.129-5.88-2.919-8.348-1.136l2.736.717a8.083,8.083,0,0,0-4.971-3.04c-2.405-.469-4.121.542-5.874,2.109h2.828c-1.787-1.882-5.358-2.172-7.729-1.462-2.757.826-4.326,4.28-4.094,6.994.219,2.546,4.221,2.569,4,0Z"/><path class="a" d="M300.948,106.761c.185,7.1.8,14.192,1.1,21.292.109,2.564,4.11,2.578,4,0-.3-7.1-.916-14.188-1.1-21.292-.067-2.569-4.067-2.579-4,0Z"/><path class="a" d="M260.4,138.01a77.344,77.344,0,0,0,15,14.5,60.176,60.176,0,0,0,9.069,5.29c2.857,1.355,6.481,2.47,9.632,1.479,3.372-1.06,5.7-3.564,7.718-6.329a41.515,41.515,0,0,0,5.283-10,50.489,50.489,0,0,0,2.613-10.393,3.5,3.5,0,0,0-2.833-4.206c-2.025-.536-4.059-1.034-6.079-1.59q-3.57-.981-7.115-2.048-1.731-.517-3.458-1.048a11.763,11.763,0,0,0-3.331-.847c-2.358.017-3.038,2.009-3.813,3.822-.781,1.829-1.594,3.634-2.249,5.513-.85,2.435,3.013,3.482,3.857,1.063.447-1.282.958-2.531,1.5-3.774.3-.691.6-1.383.891-2.081.023-.057.316-.7.258-.725q-.884.124-.277.239l.7.217c3.517,1.087,7.042,2.149,10.587,3.143q2.542.712,5.1,1.376c.241.062,2.81.78,2.837.714l-.465-.639c-.039.256-.079.513-.121.769q-.1.579-.2,1.156a49.01,49.01,0,0,1-2.479,8.846,37.492,37.492,0,0,1-4.536,8.3c-1.429,1.982-3.31,4.254-5.856,4.782-2.609.541-5.352-.768-7.606-1.906a59.424,59.424,0,0,1-7.612-4.577,73.934,73.934,0,0,1-14.186-13.877,2.013,2.013,0,0,0-2.828,0,2.046,2.046,0,0,0,0,2.829Z"/><path class="a" d="M227.982,90.308A79.022,79.022,0,0,0,212.324,91.7c-5.545,1.214-10.811,3.757-16.061,5.86a2.063,2.063,0,0,0-1.4,2.461,2.014,2.014,0,0,0,2.461,1.4c5.111-2.047,10.238-4.518,15.62-5.761a71.765,71.765,0,0,1,15.035-1.347c2.572-.042,2.58-4.042,0-4Z"/><path class="a" d="M295.587,83.273a40.536,40.536,0,0,0-1.279,5.165c-.313,1.8-.744,4-.182,5.793a4.552,4.552,0,0,0,4.705,3.293,4.43,4.43,0,0,0,2.741-1.036,5.185,5.185,0,0,0,1.533-2.547,2,2,0,0,0-3.857-1.063c-.025.087-.24.54-.052.21-.069.121-.146.241-.212.364q-.124.183.073-.092a1.927,1.927,0,0,1-.154.159c-.195.14.35-.146.03-.021-.4.157.459-.085.044-.013-.08.014-.414.149-.126.043s-.071,0-.171,0c-.155,0-.306-.013-.461-.016.474.01.071-.014-.066-.041-.36-.07.207.109.02.006-.142-.079.218.241-.023-.036-.356-.408.176.321-.1-.136-.188-.312.008.153-.042-.06-.013-.056-.161-.576-.1-.318s-.01-.2-.012-.259c0-.172,0-.345,0-.517a18.078,18.078,0,0,1,.163-2.026c-.039.294,0-.008.026-.142.025-.162.052-.324.08-.485q.1-.585.225-1.167c.284-1.349.642-2.682,1.054-4a2.017,2.017,0,0,0-1.4-2.46,2.042,2.042,0,0,0-2.46,1.4Z"/><path class="a" d="M288.22,81.973a28.362,28.362,0,0,0-1.527,6.318c-.255,1.929-.7,4.233.041,6.09a5.836,5.836,0,0,0,1.911,2.7,5.33,5.33,0,0,0,2.714.88,5.245,5.245,0,0,0,4.918-2.9,2.065,2.065,0,0,0-.717-2.736,2.015,2.015,0,0,0-2.737.717,3.026,3.026,0,0,1-.211.408q-.113.171.024-.03l-.135.139c-.458.4.159-.079-.13.115-.135.091-.277.169-.419.248-.194.094-.23.11-.106.05.109-.05.087-.047-.068.006-.143.129-.141-.037.081-.006-.15-.021-.348-.005-.5-.01.188.006.223.048.017-.009-.168-.046-.333-.084-.5-.146.156.059.226.075.034-.008q-.24-.158-.042-.018c.121.1.119.084-.006-.037-.017.041.106.172-.036-.068-.107-.18-.215-.354-.309-.543a1.1,1.1,0,1,0-.043-.106,3.217,3.217,0,0,1-.156-.595c.038.305.031-.051.034-.17a27.655,27.655,0,0,1,1.721-9.222,2.009,2.009,0,0,0-1.4-2.46,2.054,2.054,0,0,0-2.46,1.4Z"/><path class="a" d="M254.87,99.411a52.4,52.4,0,0,1,10.537,4.92,14.036,14.036,0,0,1,3.939,3.093c.837,1.083,1.593,2.232,2.338,3.379,3.577,5.5,6.566,11.6,10.915,16.554,1.7,1.939,4.521-.9,2.828-2.828a57.116,57.116,0,0,1-5.329-7.759c-1.876-3.031-3.685-6.107-5.672-9.066a29.263,29.263,0,0,0-2.724-3.692,21.361,21.361,0,0,0-4.62-3.344,57.851,57.851,0,0,0-11.149-5.115c-2.442-.831-3.491,3.032-1.063,3.858Z"/><path class="a" d="M253.987,96.068q-3.879,4.02-7.946,7.853-2.123,2-4.3,3.94-1.089.966-2.2,1.911c-.331.281-1.339,1.436-1.773,1.406.28.02-.1-.462-.222-.741q-.375-.837-.735-1.682c-.536-1.25-1.052-2.507-1.564-3.766-1.1-2.693-2.167-5.4-3.241-8.1-.738-1.859-1.4-3.8-2.3-5.592-1.158-2.3-4.609-.277-3.454,2.019.105.207.194.42.286.633.085.195-.066-.157-.066-.156.041.1.083.2.123.3.092.228.186.455.279.683.465,1.146.92,2.3,1.377,3.446,1.2,3.012,2.39,6.027,3.623,9.024.589,1.433,1.186,2.863,1.8,4.283.658,1.509,1.342,2.956,3.066,3.457,2.148.623,3.632-.7,5.16-1.991,1.664-1.4,3.291-2.847,4.894-4.317q5.157-4.733,10.014-9.778c1.789-1.853-1.036-4.685-2.828-2.828Z"/><path class="a" d="M261.708,123.979c-1.665,9.129-3.31,18.281-4.548,27.479a2.07,2.07,0,0,0,1.4,2.46,2.013,2.013,0,0,0,2.46-1.4c1.238-9.2,2.883-18.35,4.548-27.479.459-2.516-3.395-3.6-3.857-1.063Z"/><path class="b" d="M276.674,47.321a35.224,35.224,0,0,1-1.79,9.136,1.118,1.118,0,0,1,.223.046,3.624,3.624,0,0,1,2.359,2.061,5.123,5.123,0,0,1,.262,2.115,15.369,15.369,0,0,1-2.62,7.871,9.763,9.763,0,0,1-2.938,2.955,5.766,5.766,0,0,1-3.381.589s-.166-.013-.46-.039a29.963,29.963,0,0,1-6.775,9.293,21.712,21.712,0,0,1-13.272,6.11,33.2,33.2,0,0,1-6.278-.19,37.315,37.315,0,0,1-5.629-1.365,21.977,21.977,0,0,1-11.713-9.428,29.965,29.965,0,0,1-4.139-10.787,3.981,3.981,0,0,1-3.677-1.49,9.768,9.768,0,0,1-2.07-3.617,15.373,15.373,0,0,1-.486-8.281,5.113,5.113,0,0,1,.8-1.975,3.625,3.625,0,0,1,2.813-1.378,3.736,3.736,0,0,1,.4.015c-.026-.535-.041-.851-.041-.851a39.706,39.706,0,0,1,.618-8.424c2.016-11.546,14.266-23.1,33.957-20.1C274.131,22.83,277.051,43.134,276.674,47.321Z"/><path class="d" d="M216.777,34.438A28.18,28.18,0,0,1,227.746,19a35.218,35.218,0,0,1,23.59-5.807c5.988.791,8.928,1.424,13.165,4.486l3.708,2.68,1.443,1.061a16.33,16.33,0,0,1,3.672,3.743c4.283,5.384,6.569,14.354,6.1,22.056a35.509,35.509,0,0,1-2.5,10.468,3.715,3.715,0,0,0-1.821-1.181,3.84,3.84,0,0,0-3.164.489s-.346.262-.852.66c-.213-1.14-.515-2.8-.774-3.6a9.777,9.777,0,0,0-.927-2.082,5.232,5.232,0,0,0-.6-.847c-.384-.415-1.195-1.284-1.615-1.666a20.307,20.307,0,0,1-4.748-6.3c-1.287-2.567-2.381-5.661-1.779-8.565a22.309,22.309,0,0,1-18.676,9.73c-1.923.025-3.489-1.88-5.258-2.18-5.246,2.574-12.385,6.5-14.366,9.886l-1.517-1.783a3.841,3.841,0,0,0-2.929-1.294,3.787,3.787,0,0,0-2.182.743A41,41,0,0,1,216.777,34.438Z"/><path class="a" d="M272.952,58.719a1.782,1.782,0,0,1,2.7.65,5.79,5.79,0,0,1,.006,2.252,13.58,13.58,0,0,1-.577,2.5,12.574,12.574,0,0,1-2.351,4.279,5.686,5.686,0,0,1-1.772,1.494c-.008,0-.592.182-.63.188a6.8,6.8,0,0,1-1.536.013,2,2,0,0,0,0,4,7.99,7.99,0,0,0,6.847-2.959,17.13,17.13,0,0,0,3.595-6.991c.643-2.6,1.011-5.808-.944-7.946a5.858,5.858,0,0,0-7.354-.933,2,2,0,0,0,2.019,3.454Z"/><path class="a" d="M222.248,48.827a5.841,5.841,0,0,0-7.476-.9c-2.432,1.687-2.863,5.037-2.834,7.788a16.323,16.323,0,0,0,2.084,8.03c1.306,2.2,3.527,4.192,6.247,3.988a2.05,2.05,0,0,0,2-2,2.016,2.016,0,0,0-2-2,1.962,1.962,0,0,1-1.416-.383,6.023,6.023,0,0,1-1.448-1.744,11.84,11.84,0,0,1-1.432-4.994,13.788,13.788,0,0,1,.067-2.836,5.169,5.169,0,0,1,.626-2.214,1.773,1.773,0,0,1,2.754.1,2,2,0,1,0,2.828-2.829Z"/><path class="a" d="M273.151,57.81a26.486,26.486,0,0,0-1.421-5.627,16.018,16.018,0,0,0-3.89-4.856,19.665,19.665,0,0,1-3.774-5.368c-1.018-2.068-1.906-4.5-1.487-6.84a2.01,2.01,0,0,0-3.655-1.541c-4.008,5.538-9.811,9.239-16.769,9.311-2.573.026-2.579,4.027,0,4,8.456-.088,15.372-4.589,20.223-11.292l-3.656-1.541c-.918,5.121,1.558,10.418,4.71,14.347,1.256,1.565,3.027,2.765,4.14,4.429,1.165,1.74,1.329,4.037,1.722,6.041.5,2.524,4.351,1.456,3.857-1.063Z"/><path class="a" d="M242.727,35.639c-2.663,3.357-7.323,5.135-11.142,7.094-4,2.054-8.656,4.341-11.018,8.373-1.3,2.226,2.152,4.241,3.454,2.019a12.352,12.352,0,0,1,3.94-3.755,65.234,65.234,0,0,1,6.4-3.572c3.84-1.955,8.44-3.864,11.191-7.33a2.065,2.065,0,0,0,0-2.829,2.014,2.014,0,0,0-2.829,0Z"/><path class="a" d="M265.511,15.949c-4.3-3.073-9.007-4.115-14.175-4.759a36.19,36.19,0,0,0-17.848,2.5,31.33,31.33,0,0,0-17.659,17.33c-2.23,5.584-2.649,11.764-2.192,17.708.2,2.55,4.2,2.571,4,0-.666-8.664.771-17.587,6.843-24.172s15.224-9.94,24.11-9.6a39.434,39.434,0,0,1,8.4,1.247,19.762,19.762,0,0,1,6.5,3.2,2.016,2.016,0,0,0,2.736-.717,2.044,2.044,0,0,0-.717-2.737Z"/><path class="a" d="M279.221,57.4a36.108,36.108,0,0,0,1.339-20.654c-1.386-6.463-4.472-13.043-9.9-17.058a2.014,2.014,0,0,0-2.736.718,2.046,2.046,0,0,0,.717,2.736c4.466,3.3,7.029,9.57,8.144,15.063a32.2,32.2,0,0,1-1.422,18.132,2.014,2.014,0,0,0,1.4,2.46,2.047,2.047,0,0,0,2.46-1.4Z"/><path class="a" d="M218.17,63.019c.891,9.67,5.982,19.672,15.168,23.827A30.472,30.472,0,0,0,248.863,89.4a24.419,24.419,0,0,0,13.43-6.037,32.346,32.346,0,0,0,9.021-13.313c.894-2.417-2.971-3.461-3.857-1.063-2.821,7.627-9.181,14.644-17.408,16.226-8.416,1.618-17.99-1.617-22.963-8.7a28.07,28.07,0,0,1-4.916-13.491,2.054,2.054,0,0,0-2-2,2.015,2.015,0,0,0-2,2Z"/><path class="a" d="M244.2,61.85c-.281.667-.54,1.343-.765,2.031a2.937,2.937,0,0,0-.16,1.046,2.617,2.617,0,0,0,.332,1.188,2.574,2.574,0,0,0,.89.87,3.11,3.11,0,0,0,1.5.461c.146.014.291,0,.438,0a2.062,2.062,0,0,0,1.414-.586,2,2,0,0,0,0-2.829,2.093,2.093,0,0,0-1.414-.585,3.945,3.945,0,0,1-.474,0l.531.072a1.186,1.186,0,0,1-.233-.065l.478.2a1.579,1.579,0,0,1-.314-.187l.405.313a.324.324,0,0,1-.056-.055l.313.405a.516.516,0,0,1-.055-.1l.2.478a.605.605,0,0,1-.025-.112l.071.532a.939.939,0,0,1,.008-.205l-.072.532a6.869,6.869,0,0,1,.4-1.214c.143-.378.291-.754.448-1.127a1.522,1.522,0,0,0,.036-.8,1.5,1.5,0,0,0-.238-.744,2,2,0,0,0-2.736-.717l-.405.313a1.99,1.99,0,0,0-.514.882Z"/><path class="a" d="M233.128,53.834c-.593,1.293-.733,4.432,1.788,5.033,3.379.426,4.055-3.3,3.151-5.215C237.327,52.085,234.669,51.123,233.128,53.834Z"/><path class="a" d="M260.172,57.406c.237,1.4-.444,4.47-3.034,4.4-3.374-.467-3.058-4.242-1.689-5.855C256.571,54.627,259.387,54.388,260.172,57.406Z"/><path class="a" d="M249.572,76.206a11.445,11.445,0,0,0,2.122-3.244,2.015,2.015,0,0,0-1.928-2.532c-3.281-.044-6.56-.163-9.828-.466A2.012,2.012,0,0,0,238.01,72.5a12.96,12.96,0,0,0,4.095,6.51,3.768,3.768,0,0,0,4.482.2,17.751,17.751,0,0,0,2.985-3,2,2,0,1,0-2.828-2.828,29.549,29.549,0,0,1-2.283,2.437,1.69,1.69,0,0,0-.2.176c.231-.306.245-.16.062-.073-.219.1.451-.131.117-.047s.376.011.119-.009c-.3-.024-.134,0,.058.039-.337-.071.193.158.022.016-.079-.067-.409-.215-.029.008a1.893,1.893,0,0,1-.291-.254c-.158-.146-.316-.294-.467-.448-.079-.081-.156-.164-.23-.249-.232-.266,0-.111,0,.022,0-.133-.342-.489-.414-.6q-.2-.32-.379-.653c-.121-.223-.234-.45-.343-.68-.043-.091-.083-.183-.126-.274-.215-.464.155.4-.032-.069-.169-.423-.325-.849-.465-1.282l-1.929,2.531c3.268.3,6.547.422,9.828.466L247.837,71.9c.229-.594,0-.034-.075.1-.1.179-.218.351-.335.52-.042.06-.47.615-.21.291q-.232.29-.473.573a2,2,0,0,0,2.828,2.828Z"/><path class="b" d="M114.264,93.488a9.954,9.954,0,0,0,3.224-4.769c.161-.444.308-.894.442-1.347,1.182.055,2.928,0,4.153-.054a37.576,37.576,0,0,0,6.984-1.223,23.879,23.879,0,0,0,4.219-1.689l.7,2.06c.425,1.246,1.344,4.677,1.77,5.924a2.861,2.861,0,0,0,.351.779,2.4,2.4,0,0,0,1.353.8,9.159,9.159,0,0,0,1.976.2c-1.308,2.983-8.151,12.171-12.138,16.867a2,2,0,0,1-2.968.087A123.144,123.144,0,0,1,111.406,95.5a12.628,12.628,0,0,0,2.858-2.014"/><path class="b" d="M15.183,77.143a52.9,52.9,0,0,0,13.076,4.232c1.595.779,4,2.588,6.025,3.87.041-.138.088-.274.136-.407a37.354,37.354,0,0,1,7.934-12.914c-1.43-1.01-3.04-2.34-3.79-2.94-1.34-6.4-3.54-12.84-7.27-17.44a5.744,5.744,0,0,0-2.9-1.93,3.178,3.178,0,0,0-2.95,1.41,5.162,5.162,0,0,0-.19,3.02l.013.088-.642-.416c-3.345-2.655-4.947-4.007-7.8-6.275a6.8,6.8,0,0,0-2.8-1.106,3.187,3.187,0,0,0-3.22,1.659c-.3.657-.8,1.979-.172,2.909-.861-.714-3.793-1.841-5.1-.157C3.6,53.24,6,55.155,6.677,55.835a2.862,2.862,0,0,0-3.295.017A3.269,3.269,0,0,0,2.126,59.56a5.743,5.743,0,0,0,1.55,2.293,57.379,57.379,0,0,0,5.643,4.491,19.054,19.054,0,0,0-3.01-.531,2.516,2.516,0,0,0-2.758,2.536c-.227,1.979,1.311,3.222,3.139,4.11a59.181,59.181,0,0,1,5.527,3.076A25.956,25.956,0,0,0,15.183,77.143Z"/><path class="b" d="M43.166,71.1c-.035.029-.07.061-.1.094A37.334,37.334,0,0,0,34.42,84.838a3.5,3.5,0,0,0-.238,2.378,3.665,3.665,0,0,0,1.531,1.57l42.009,28.325c5.862,3.953,14.848,7.911,21.335,10.723l1.128.488c2.2,7.932,4.225,16.034,6.175,23.651,0,0,.1.389.275,1.077,8.82.22,20.522.542,27.317.628l25.993.5c4.246-.027,9.634-.039,15.2-.046V100.783L161.225,96.26a44.641,44.641,0,0,0-8.817-2.214,44.618,44.618,0,0,0-5.211-.168q-3.829.027-7.66.051c-1.017,2.7-8.135,12.278-12.235,17.106a2,2,0,0,1-2.968.087,122.774,122.774,0,0,1-12.958-15.665c-2.347.5-9.271,1.538-10.453,1.625A24.054,24.054,0,0,1,92.9,96.019C82.385,92.4,73.138,85.931,63.477,80.425c-6.347-3.617-12.06-6.242-18.577-9.508A1.6,1.6,0,0,0,43.166,71.1Z"/><path class="a" d="M93.974,114.535c4.073,12.486,7.2,25.254,10.458,37.97.638,2.492,4.5,1.436,3.857-1.064-3.255-12.716-6.385-25.483-10.458-37.969-.8-2.437-4.659-1.394-3.857,1.063Z"/><path class="a" d="M138.271,95.94c6.168-.042,12.522-.637,18.525,1.042s11.894,3.805,17.817,5.729c2.454.8,3.5-3.064,1.063-3.857-6.069-1.972-12.116-4.2-18.279-5.856-6.212-1.67-12.761-1.1-19.126-1.058-2.573.018-2.579,4.018,0,4Z"/><path class="a" d="M109.649,96.466a104.549,104.549,0,0,0,7.552,9.78q1.962,2.274,4.011,4.471c1.247,1.343,2.458,2.977,4.461,3.015,1.744.033,2.818-1,3.847-2.244q1.378-1.668,2.7-3.38c1.872-2.407,3.707-4.846,5.456-7.344a31.133,31.133,0,0,0,3.794-6.321,2.015,2.015,0,0,0-1.4-2.46,2.047,2.047,0,0,0-2.461,1.4c-.092.239.187-.325-.091.176-.119.216-.229.437-.349.652-.263.467-.544.924-.83,1.377-.735,1.164-1.514,2.3-2.307,3.426q-2.87,4.076-5.987,7.973-.718.9-1.452,1.788c-.253.3-.709.955-.878.953-.254,0-1.561-1.707-1.836-2q-1.173-1.267-2.324-2.556A102.013,102.013,0,0,1,113.1,94.448c-1.433-2.123-4.9-.123-3.454,2.018Z"/><path class="a" d="M28.323,57.763a24.172,24.172,0,0,1-1.1-3.982c-.137-.87-.408-2.414.9-2.2.924.148,1.8,1.393,2.3,2.093A29.254,29.254,0,0,1,32.812,57.7a44.728,44.728,0,0,1,3.127,8.811q.31,1.215.576,2.442a2.952,2.952,0,0,0,1.18,1.887c1.2.964,2.4,1.92,3.65,2.813a2.015,2.015,0,0,0,2.736-.717,2.044,2.044,0,0,0-.717-2.737c-1.164-.831-2.271-1.732-3.385-2.627l.514.883a57.466,57.466,0,0,0-2.951-9.92,28.912,28.912,0,0,0-5.022-8.622c-2.218-2.422-6-3.3-8.354-.523-2.127,2.514-.634,6.7.3,9.438.826,2.423,4.691,1.383,3.857-1.063Z"/><path class="a" d="M100.067,126.107c-4.895-2.123-9.784-4.278-14.516-6.746a149.21,149.21,0,0,1-14.233-8.975L39.606,89l-2.06-1.389c-.339-.228-1.21-.622-1.4-1-.375-.762.673-2.526,1.01-3.283a36.972,36.972,0,0,1,4.1-7.016,33.311,33.311,0,0,1,2.353-2.8,4.664,4.664,0,0,0,.575-.6l.293-.3q-.763.06-.153.251c.328.46,1.6.8,2.134,1.06,2.6,1.283,5.208,2.549,7.8,3.854C64.583,82.981,74.075,89.722,84.515,94.7c5.077,2.42,10.645,4.821,16.408,4.384a86.921,86.921,0,0,0,10.984-1.7c2.519-.526,1.453-4.382-1.063-3.858a89.573,89.573,0,0,1-9.775,1.541c-5.109.449-10.033-1.677-14.535-3.825-5.359-2.556-10.439-5.644-15.523-8.7-5.219-3.137-10.5-6.116-15.952-8.834-2.828-1.411-5.673-2.787-8.5-4.2-1.285-.641-2.568-1.087-3.95-.4a11.047,11.047,0,0,0-3.071,2.976A39.763,39.763,0,0,0,34.7,79.245c-.595,1.141-1.124,2.313-1.612,3.5-.59,1.442-1.284,3.021-.94,4.611a5.17,5.17,0,0,0,2.4,3.047c1.405.987,2.849,1.923,4.273,2.883l8.237,5.554,16.474,11.108c5.808,3.916,11.5,8.176,17.627,11.586,5.447,3.033,11.173,5.545,16.888,8.023a2.066,2.066,0,0,0,2.736-.718,2.014,2.014,0,0,0-.717-2.736Z"/><path class="a" d="M112.088,97.4a14.59,14.59,0,0,0,1.778-1.044,13.406,13.406,0,0,0,1.812-1.452,2,2,0,0,0,0-2.828,2.01,2.01,0,0,0-1.414-.586,2.1,2.1,0,0,0-1.414.586,9.574,9.574,0,0,1-.814.706l.4-.313a14.194,14.194,0,0,1-2.371,1.477,2,2,0,0,0,.478,3.656l.532.071a1.987,1.987,0,0,0,1.009-.273Z"/><path class="a" d="M26.039,52.3q-2.478-1.968-4.929-3.968c-1.6-1.294-3.127-2.793-5.075-3.525a5.634,5.634,0,0,0-6.023.956,5.326,5.326,0,0,0-1.1,6.149l2.736-2.737c-2.268-1.746-6.053-1.9-7.835.561-1.962,2.712-.663,5.443,1.451,7.512l2.424-3.141a5.122,5.122,0,0,0-6.436.954,5.462,5.462,0,0,0-.568,6.149c.906,1.76,2.62,3.009,4.129,4.229a62.188,62.188,0,0,0,5.81,4.159c2.18,1.384,4.188-2.076,2.019-3.454a56.47,56.47,0,0,1-6.874-5.112c-.716-.624-1.847-1.474-1.8-2.538a1.084,1.084,0,0,1,1.7-.933A2.009,2.009,0,0,0,8.091,54.42c-.616-.6-1.825-1.484-1.045-2.356.555-.62,2.007.124,2.582.566,1.7,1.306,3.593-1.141,2.736-2.736-.365-.68.62-1.58,1.244-1.594a4.915,4.915,0,0,1,2.921,1.447c2.23,1.79,4.442,3.6,6.682,5.383a2.062,2.062,0,0,0,2.828,0,2.014,2.014,0,0,0,0-2.829Z"/><path class="a" d="M9.5,64.34c-2.733-.639-5.982-1.059-7.424,1.988-1.718,3.629.869,6.486,3.952,8.026,2.689,1.344,5.16,3.073,7.863,4.379A58.6,58.6,0,0,0,23.3,82.309c1.56.445,3.548.511,4.917,1.326,1.756,1.047,3.4,2.28,5.121,3.378,2.178,1.386,4.186-2.074,2.019-3.454-1.676-1.067-3.273-2.26-4.973-3.289a15.437,15.437,0,0,0-4.6-1.436,51.234,51.234,0,0,1-10.026-3.625c-1.251-.611-2.4-1.344-3.6-2.057-1.611-.964-3.3-1.771-4.943-2.665-.837-.454-2.432-1.528-1.424-2.654a1.862,1.862,0,0,1,.508-.02,13.439,13.439,0,0,1,2.124.384c2.5.585,3.573-3.271,1.063-3.857Z"/><path class="a" d="M9.628,52.63c-.686-.528-.176-.135-.015-.008s.294.235.44.354q.55.443,1.1.892,1.326,1.086,2.646,2.181c1.5,1.243,2.993,2.511,4.537,3.7a2.191,2.191,0,0,0,1.415.586,2,2,0,0,0,1.414-3.414c-2.586-2-5.057-4.15-7.588-6.216-.636-.519-1.276-1.032-1.926-1.533a2,2,0,0,0-1.541-.2,2,2,0,0,0-1.4,2.46,2.363,2.363,0,0,0,.919,1.2Z"/><path class="a" d="M5.668,57.562c.134.1.4.31-.2-.155l.193.15.454.354q.57.444,1.137.89,1.351,1.061,2.7,2.124c1.652,1.3,3.3,2.606,4.966,3.89a2,2,0,0,0,1.542.2,2,2,0,0,0,.477-3.656l.191.148-.2-.155-.465-.363-1.153-.9q-1.358-1.065-2.713-2.134c-1.634-1.286-3.264-2.579-4.913-3.845a2,2,0,0,0-1.541-.2,2,2,0,0,0-.478,3.656Z"/><path class="a" d="M132.061,87c.547,1.614.962,3.274,1.451,4.906a5.96,5.96,0,0,0,1.5,3,6.862,6.862,0,0,0,4.43,1.261,2.016,2.016,0,0,0,2-2,2.042,2.042,0,0,0-2-2c-.3-.011-.61-.021-.914-.043l-.2-.016q-.334-.036.149.026a1.528,1.528,0,0,0-.367-.069c-.114-.027-.227-.058-.338-.095-.055-.017-.109-.036-.163-.057-.143-.054-.072-.025.213.089a1.2,1.2,0,0,0-.3-.17q.374.306.143.1l-.077-.084q.282.38.117.106-.108-.226,0,.017c.166.286-.01-.063-.035-.138-.045-.135-.089-.271-.132-.407-.107-.339-.208-.68-.308-1.021-.437-1.489-.823-3-1.321-4.468A2,2,0,1,0,132.061,87Z"/><path class="a" d="M24.664,57.287a11.529,11.529,0,0,0-1.08,6.887,2.2,2.2,0,0,0,.586,1.415,2,2,0,0,0,2.829,0,1.926,1.926,0,0,0,.585-1.415,12.889,12.889,0,0,1-.016-3.272l-.072.532a8.322,8.322,0,0,1,.528-1.992l-.2.478c.089-.21.187-.413.3-.614a2,2,0,0,0-3.453-2.019Z"/><path class="b" d="M148.312,47.268a4.3,4.3,0,0,1,3.359-1.253,4.061,4.061,0,0,1,3.053,1.725A5.73,5.73,0,0,1,155.49,50a17.2,17.2,0,0,1-1.091,9.223,10.931,10.931,0,0,1-2.552,3.906,3.372,3.372,0,0,1-4,.771,33.871,33.871,0,0,1-5.5,12.41A24.514,24.514,0,0,1,129.067,86.1a37.576,37.576,0,0,1-6.984,1.223,42.353,42.353,0,0,1-6.533-.225,24.8,24.8,0,0,1-15.1-7.748,33.818,33.818,0,0,1-7.06-11.034c-1.811,1-3.265.152-4.4-.629a10.933,10.933,0,0,1-3.088-3.5,17.214,17.214,0,0,1-2.409-8.971,5.725,5.725,0,0,1,.433-2.347A4.06,4.06,0,0,1,86.7,50.72a4.3,4.3,0,0,1,3.505.756s-3.779-25.494,24.449-28.734C148.739,18.83,148.312,47.268,148.312,47.268Z"/><path class="f" d="M96.288,38.4c-.474.657-.95,1.3-1.428,1.923-.237.531-.378.849-.378.849-.982,2.2-1.363,6.226-3.681,10.9A4.112,4.112,0,0,0,86.875,50.7c-2.616-4.7-3.348-13.64-2.424-19.1.905-5.346,3.433-10.412,6.344-12.368l4.024-5.067c4.835-6.167,11.9-9.092,19.06-9.721,7.758-.681,15.214.591,21.218,6.521l5.774,3.407c4.367,1.79,8.39,6.973,10.086,10.579,2.453,5.214,3.685,14.149,2.105,21.419a4.2,4.2,0,0,0-5.1,1.348,36.461,36.461,0,0,0-5.077-14.011c-.938-1.421-3.7-1.752-5.107-2.716,0,0-4.475-4.632-13.052-5.075-3.193-.165-9.465,1.669-9.465,1.669-4.469-.3-7.7-.749-11.424,1.738C101.405,30.944,98.868,34.828,96.288,38.4Z"/><path class="a" d="M149.726,48.682a2.248,2.248,0,0,1,3.275.072,4.49,4.49,0,0,1,.615,2.207,16.879,16.879,0,0,1,.015,3.226,14.218,14.218,0,0,1-1.575,5.346,7.86,7.86,0,0,1-1.623,2.183,1.386,1.386,0,0,1-1.3.5,2.053,2.053,0,0,0-2.46,1.4,2.018,2.018,0,0,0,1.4,2.461c6.512,1.241,9.342-7.516,9.6-12.527.144-2.754-.1-6.259-2.405-8.125a6.324,6.324,0,0,0-8.374.436c-1.854,1.793.976,4.62,2.828,2.829Z"/><path class="a" d="M91.209,49.749a6.287,6.287,0,0,0-8.15.866c-2.086,2.3-1.732,5.881-1.164,8.7a18.36,18.36,0,0,0,3.747,7.963c1.827,2.217,4.713,4.121,7.679,3.238,2.461-.732,1.413-4.594-1.064-3.857-1.451.432-2.978-1.179-3.787-2.209a14.517,14.517,0,0,1-2.508-5.285,14.241,14.241,0,0,1-.451-2.858,5.418,5.418,0,0,1,.238-2.64c.684-1.321,2.383-1.226,3.442-.464a2.016,2.016,0,0,0,2.736-.718,2.044,2.044,0,0,0-.718-2.736Z"/><path class="a" d="M115.276,20.694c.246.072.489.149.731.234.111.04.492.259.6.229q-.391-.167-.184-.076l.175.079c.116.054.232.109.346.166.191.094.379.194.565.3a13.209,13.209,0,0,1,1.19.749c.105.074.207.15.31.226.365.266-.346-.29,0,0,.18.152.361.3.535.457a13.537,13.537,0,0,1,1,.994q.236.261.458.534l.08.1q.2.251-.078-.1l.189.258a13.2,13.2,0,0,1,.754,1.186c.114.2.224.412.327.622.057.115.111.23.164.347s.215.512,0-.008a2.2,2.2,0,0,0,.919,1.2,2.044,2.044,0,0,0,1.541.2,2.02,2.02,0,0,0,1.4-2.46,15.309,15.309,0,0,0-9.948-9.088,2,2,0,0,0-1.063,3.857Z"/><path class="a" d="M127.537,23.024c.125.087.247.177.368.269l-.405-.312a8.352,8.352,0,0,1,1.41,1.421L128.6,24a8.579,8.579,0,0,1,1.06,1.807l-.2-.478a8.263,8.263,0,0,1,.579,2.105l-.071-.532c.015.121.028.242.038.363a2.145,2.145,0,0,0,.586,1.414A2,2,0,0,0,134,27.262a10.1,10.1,0,0,0-4.446-7.692,2,2,0,0,0-2.938,2.258,2.254,2.254,0,0,0,.92,1.2Z"/><path class="a" d="M137.847,31.6a12.7,12.7,0,0,1,3.744,3.816,27.92,27.92,0,0,1,2.094,4.434,49.382,49.382,0,0,1,1.569,4.9c.2.763.386,1.532.541,2.306.061.3.118.608.169.914.025.155.05.311.072.467-.048-.345,0-.01.011.145a2.059,2.059,0,0,0,2,2,2.013,2.013,0,0,0,2-2,39.7,39.7,0,0,0-2.7-10.312,31.657,31.657,0,0,0-2.483-5.178,17.446,17.446,0,0,0-4.993-4.944,2.018,2.018,0,0,0-2.737.717,2.042,2.042,0,0,0,.718,2.737Z"/><path class="a" d="M89.786,17.505c-5.093,3.579-7.209,10.694-7.629,16.618-.4,5.711.214,12.129,2.836,17.294,1.166,2.3,4.618.274,3.454-2.019-2.2-4.335-2.572-9.817-2.331-14.594a25.469,25.469,0,0,1,1.614-7.689c.828-2.2,2.091-4.762,4.075-6.156,2.09-1.469.094-4.938-2.019-3.454Z"/><path class="a" d="M139.862,16.1c4.706,2.021,8.447,6.9,10.083,11.668a35,35,0,0,1,1.267,17.694c-.49,2.515,3.364,3.591,3.857,1.063a38.892,38.892,0,0,0-1.381-20.145c-1.983-5.542-6.275-11.358-11.807-13.734a2.067,2.067,0,0,0-2.737.718,2.014,2.014,0,0,0,.718,2.736Z"/><path class="a" d="M90.485,66.027c3.157,10.4,11.123,20.13,22.094,22.586a34.259,34.259,0,0,0,17.88-.862,26.623,26.623,0,0,0,12.419-8.859,35.989,35.989,0,0,0,7.351-16.912,2.066,2.066,0,0,0-1.4-2.46,2.014,2.014,0,0,0-2.46,1.4c-1.384,9.136-6.572,18.581-15.378,22.376a30.122,30.122,0,0,1-15.666,1.775,23.013,23.013,0,0,1-12.841-6.512,31.91,31.91,0,0,1-8.145-13.592c-.745-2.457-4.607-1.409-3.857,1.063Z"/><path class="a" d="M96.233,15.58a25.225,25.225,0,0,1,18.04-9.169c7.153-.569,14.124.838,19.409,5.969,1.848,1.793,4.68-1.032,2.829-2.829-6.018-5.84-14.038-7.792-22.238-7.14-8.038.64-15.759,3.935-20.868,10.34a2.063,2.063,0,0,0,0,2.829,2.014,2.014,0,0,0,2.828,0Z"/><path class="a" d="M115.42,25.106c-6.733.03-13.019,3.393-17.619,8.222a26.851,26.851,0,0,0-5.83,9.321c-1.12,3.1-1.979,6.374-2.858,9.549-.689,2.484,3.169,3.544,3.857,1.063.789-2.848,1.645-5.689,2.512-8.515a21.933,21.933,0,0,1,4.9-8.326c3.886-4.212,9.233-7.288,15.038-7.314,2.573-.012,2.578-4.012,0-4Z"/><path class="a" d="M119.277,58.382c-.255.834-.488,1.678-.669,2.531a3.783,3.783,0,0,0-.052,1.643,2.442,2.442,0,0,0,1.213,1.6,3.493,3.493,0,0,0,1.609.455,5.73,5.73,0,0,0,1.035-.119l-.531.071.065-.007a2.222,2.222,0,0,0,1.414-.586,2,2,0,0,0,0-2.828,1.956,1.956,0,0,0-1.414-.586c-.27.026-.537.07-.8.109l.531-.071a1.622,1.622,0,0,1-.406.008l.532.071a1.519,1.519,0,0,1-.349-.1l.477.2a1.837,1.837,0,0,1-.267-.149l.405.312a.358.358,0,0,1-.062-.061l.312.405a.686.686,0,0,1-.065-.111l.2.478a.764.764,0,0,1-.043-.174l.071.531a1.49,1.49,0,0,1,.007-.291l-.072.532a12.327,12.327,0,0,1,.333-1.444c.121-.453.248-.9.385-1.353a2,2,0,0,0-1.4-2.46,2.023,2.023,0,0,0-1.541.2,2.138,2.138,0,0,0-.919,1.2Z"/><path class="a" d="M105.11,53.155c-.352,1.53.2,4.95,3.053,5.038,3.746-.294,3.644-4.47,2.241-6.335C109.255,50.33,106.17,49.884,105.11,53.155Z"/><path class="a" d="M134.992,50.991c.569,1.463.518,4.927-2.3,5.426-3.748.248-4.249-3.9-3.13-5.947C130.483,48.793,133.471,47.907,134.992,50.991Z"/><path class="a" d="M128.067,77.04a16.842,16.842,0,0,0,2.221-7.7c.127-1.4-1.374-2.141-2.532-1.928-.977.179-1.955.36-2.935.524q-.651.108-1.3.2c-.1.015-.807.108-.26.039-.211.026-.421.053-.632.078a55.233,55.233,0,0,1-5.879.317,2,2,0,0,0,0,4,69.854,69.854,0,0,0,12.072-1.306l-2.531-1.929c-.024.258-.056.514-.081.772-.023.237.049-.3-.013.089-.019.121-.037.241-.057.361-.1.582-.218,1.161-.369,1.731-.143.538-.322,1.06-.517,1.581-.108.288.132-.249-.011.018-.069.129-.125.266-.193.4-.132.254-.278.5-.433.737a2.015,2.015,0,0,0,.717,2.736,2.044,2.044,0,0,0,2.736-.718Z"/><path class="b" d="M201.079,139.614a51.674,51.674,0,0,1,12.183,6.944q1.051.824,2.053,1.712c1.154,1.219,3.226,3.826,4.852,5.815-17.509.055-54.249.007-78.579.117,5.485-7.643,13.806-12.955,23.182-16.818Z"/><path class="b" d="M211.6,109.956a4.174,4.174,0,0,1,3.38-.828,3.943,3.943,0,0,1,2.747,2.008,5.563,5.563,0,0,1,.483,2.265,16.7,16.7,0,0,1-2.095,8.766,10.6,10.6,0,0,1-2.9,3.476,3.2,3.2,0,0,1-3.238.607l-.475-.167c-.347,1.149-.781,2.145-.978,2.632-1.173,2.624-7.843,12.251-16.1,14.139-4.809,1.871-12.085,1.816-16.933.407a26.924,26.924,0,0,1-13.6-8.831,30,30,0,0,1-5.494-10.366l-.72.16a3.984,3.984,0,0,1-3.561-1.3,10.623,10.623,0,0,1-2.582-3.72,16.692,16.692,0,0,1-1.306-8.918,5.562,5.562,0,0,1,.682-2.213,3.94,3.94,0,0,1,2.915-1.756,4.169,4.169,0,0,1,3.292,1.125s2.1-24.665,29.432-23.447S211.6,109.956,211.6,109.956Z"/><path class="f" d="M152.569,94.943a30.114,30.114,0,0,1,13.738-20.724,31.588,31.588,0,0,1,18.977-4.927,33.235,33.235,0,0,1,10.969,2.3,31.437,31.437,0,0,1,4.568,2.3A36.514,36.514,0,0,1,206,77.671c.614.584,1.511,1.538,2.1,2.189a29.226,29.226,0,0,1,3.828,5.312,30.663,30.663,0,0,1,3.747,15.025,41.06,41.06,0,0,1-.974,8.895,4.126,4.126,0,0,0-3.1.864l-.968.055a4.516,4.516,0,0,1-4.227-2.355l-.449-.825a31.773,31.773,0,0,0-5.418-15.23,2.613,2.613,0,0,0-3.191-.889,53.074,53.074,0,0,1-6.659,2.446c-1.491.438-3.45.726-4.481-.257-.977-.931-.491-2.517-1.668-3.291a4.107,4.107,0,0,0-2.954-.2c-10.457,2.126-16.253,7.027-20.447,14.83l-.625.964a4.978,4.978,0,0,1-4.325,2.267l-1.071-.032a4.076,4.076,0,0,0-2.488-1.12c.108,1.863-.72-4.962-.368-8.947Q152.376,96.122,152.569,94.943Z"/><path class="a" d="M212.614,111.683a2.237,2.237,0,0,1,3.141.047,3.646,3.646,0,0,1,.473,2.277,13.906,13.906,0,0,1-.284,2.929,14.864,14.864,0,0,1-2.215,5.306,7.217,7.217,0,0,1-1.624,1.747c-.694.513-.837.571-1.594.333-2.461-.776-3.514,3.085-1.064,3.857,3.036.956,5.582-1.03,7.321-3.342a17.5,17.5,0,0,0,3.2-7.733c.426-2.764.669-6.251-1.551-8.356a6.155,6.155,0,0,0-7.818-.519,2.066,2.066,0,0,0-.718,2.736,2.015,2.015,0,0,0,2.737.718Z"/><path class="a" d="M156.535,106.025a6.2,6.2,0,0,0-8.144-.332c-2.35,1.92-2.491,5.521-2.219,8.316a17.687,17.687,0,0,0,2.8,8.307c1.691,2.438,4.13,4.379,7.239,3.837a2.017,2.017,0,0,0,1.4-2.46,2.045,2.045,0,0,0-2.46-1.4c-1.153.2-2.429-1.522-2.959-2.355a14,14,0,0,1-1.968-5.5,15.028,15.028,0,0,1-.109-2.868,5.512,5.512,0,0,1,.455-2.369,2.067,2.067,0,0,1,3.138-.354c1.9,1.735,4.733-1.087,2.828-2.829Z"/><path class="a" d="M153.583,120.7c1.891,11.792,10.629,21.939,22.355,24.749a32.245,32.245,0,0,0,17.019-.665,27.483,27.483,0,0,0,12.754-8.582c3.145-3.6,5.82-7.668,6.277-12.554a2.014,2.014,0,0,0-2-2,2.043,2.043,0,0,0-2,2,13.515,13.515,0,0,1-1.013,3.609,6.664,6.664,0,0,1-.715,1.478,28.145,28.145,0,0,1-2.6,3.724c-2.73,3.332-6.171,6.646-10.332,8.059a29.721,29.721,0,0,1-14.756,1.394,25.257,25.257,0,0,1-13.443-6.892,27.963,27.963,0,0,1-7.684-15.384,2.017,2.017,0,0,0-2.461-1.4,2.05,2.05,0,0,0-1.4,2.461Z"/><path class="a" d="M216.677,109.413c1.773-8.5,1.289-17.555-3.02-25.251a33.6,33.6,0,0,0-19.21-15.326,35.935,35.935,0,0,0-25.123,1.452,33.52,33.52,0,0,0-14.267,12.42c-4.463,7.032-5.452,15.27-4.5,23.405a2.061,2.061,0,0,0,2,2,2.012,2.012,0,0,0,2-2c-.742-6.377-.443-12.844,2.446-18.695a29.323,29.323,0,0,1,10.961-11.879c12.98-8,31.514-4.541,40.476,7.877,5.235,7.252,6.178,16.343,4.385,24.933-.524,2.512,3.331,3.586,3.857,1.064Z"/><path class="a" d="M162.426,106.862c3.687-6.8,9.1-12.41,16.645-14.745a22.6,22.6,0,0,1,3.239-.812c1.029-.156,1.038-.183,1.287.729a4.554,4.554,0,0,0,4.682,3.528c2.45.006,4.977-1.059,7.22-1.929.592-.23,1.179-.472,1.763-.719.274-.116.768-.462,1.094-.434.782.069,1.222,1.283,1.557,1.872a37.742,37.742,0,0,1,4.264,14.268,2.061,2.061,0,0,0,2,2,2.013,2.013,0,0,0,2-2,45.544,45.544,0,0,0-4-14.731c-1.017-2.1-2.25-4.661-4.71-5.275a5.4,5.4,0,0,0-3.56.56q-2.153.913-4.381,1.633a10.424,10.424,0,0,1-3.252.755c-.993-.017-.771-.66-1.069-1.493-1.041-2.907-3.921-3.067-6.548-2.5a30.484,30.484,0,0,0-12.627,5.986,36.476,36.476,0,0,0-9.062,11.291c-1.227,2.264,2.225,4.286,3.453,2.019Z"/><path class="a" d="M200.547,141.542a52.011,52.011,0,0,1,9.985,5.465,44.6,44.6,0,0,1,8.112,7.975,2.017,2.017,0,0,0,2.829,0,2.043,2.043,0,0,0,0-2.829q-2-2.365-4.12-4.634a30.68,30.68,0,0,0-4.8-3.966,56.4,56.4,0,0,0-10.94-5.868,2.012,2.012,0,0,0-2.46,1.4,2.052,2.052,0,0,0,1.4,2.46Z"/><path class="a" d="M145.11,152.948c5.425-6.208,12.635-10.5,20.192-13.635a2.068,2.068,0,0,0,1.4-2.461,2.013,2.013,0,0,0-2.461-1.4c-8.19,3.394-16.062,7.919-21.956,14.665-1.688,1.931,1.13,4.771,2.828,2.828Z"/><path class="b" d="M134.684,148.289c.19-3.995,6.062-9.664,13.147-8.744,4.488.583,6.124-.193,9.219,3.108,2.816,3,3.316,7.241,2.881,11.351-.081.562-.243,1.718-.243,1.718-.277,1.993-.985,3.514-2.6,4.187a3.839,3.839,0,0,1-4.449-1.166c-.206,1.885-1.238,3.068-2.94,3.095s-3.483-.9-3.76-2.449a3.071,3.071,0,0,1-3.2,1.288c-1.068-.259-2.8-1.295-2.878-2.612-.539,1.279-2.668,1.145-3.912.153s-1.39-2.767-1.349-4.357,0-4.284.091-5.572"/><path class="a" d="M136.684,148.289a4.063,4.063,0,0,1,.262-1.054,7.229,7.229,0,0,1,.8-1.411,10.048,10.048,0,0,1,2.746-2.589,11.35,11.35,0,0,1,3.98-1.624,16.778,16.778,0,0,1,4.834.092,21.956,21.956,0,0,1,3.365.36,5.991,5.991,0,0,1,2.832,1.864c2.384,2.494,2.716,5.993,2.5,9.28a11.829,11.829,0,0,1-.669,3.76c-.667,1.536-2.227,1.469-3.285.361-.946-.989-3.13-.64-3.343.883-.1.7-.171,1.517-.974,1.631a1.688,1.688,0,0,1-1.869-.985,2.023,2.023,0,0,0-3.656-.477c-.563.958-2.3-.014-2.425-.847-.255-1.734-2.892-1.888-3.655-.477.119-.22.322.064-.161-.074a1.734,1.734,0,0,1-.859-.4,3.491,3.491,0,0,1-.52-2.376c0-1.966-.022-3.952.1-5.915.155-2.571-3.846-2.562-4,0-.093,1.544-.06,3.094-.076,4.64a11.35,11.35,0,0,0,.653,4.98c1.365,2.98,6.465,4.595,8.32,1.166l-3.656-.478c.293,1.984,2.327,3.477,4.156,3.974a5.07,5.07,0,0,0,5.58-2.172l-3.655-.478c.638,2.562,3.312,4.027,5.844,3.908a5.014,5.014,0,0,0,4.713-4.555l-3.343.883a5.921,5.921,0,0,0,6.633,1.579,6.37,6.37,0,0,0,3.639-4.758c.855-3.983.926-8.414-.713-12.2a11.015,11.015,0,0,0-8.81-6.856c-4.218-.477-8.253-.834-12.18,1.11-3.525,1.745-6.808,5.178-7.1,9.258-.187,2.569,3.814,2.557,4,0Z"/><path class="a" d="M154.634,158.743c.2-2.534.38-5.089.37-7.631a2,2,0,0,0-4,0c.01,2.542-.168,5.1-.37,7.631a2.01,2.01,0,0,0,2,2,2.051,2.051,0,0,0,2-2Z"/><path class="a" d="M148.03,158.762a61.411,61.411,0,0,0,.448-7.97,2,2,0,1,0-4,0,61.411,61.411,0,0,1-.448,7.97,2.008,2.008,0,0,0,2,2,2.053,2.053,0,0,0,2-2Z"/><path class="a" d="M142.085,157.385a53.521,53.521,0,0,0,.419-6.273,2,2,0,0,0-4,0,53.521,53.521,0,0,1-.419,6.273,2,2,0,0,0,.586,1.414,2,2,0,0,0,2.829,0,2.313,2.313,0,0,0,.585-1.414Z"/><path class="b" d="M230.439,152.555c.166-4-5.179-10.165-12.318-9.879-4.522.182-6.083-.737-9.459,2.276-3.072,2.741-3.946,6.917-3.879,11.05.032.567.089,1.733.089,1.733.1,2.009.67,3.588,2.224,4.4a3.839,3.839,0,0,0,4.534-.766c.038,1.895.961,3.166,2.653,3.345s3.55-.589,3.963-2.106a3.069,3.069,0,0,0,3.076,1.567c1.086-.163,2.9-1.04,3.1-2.345.423,1.322,2.556,1.378,3.882.5s1.631-2.632,1.732-4.22.38-4.267.405-5.557"/><path class="a" d="M232.439,152.555c.059-3.443-2.263-6.631-4.86-8.673a14.79,14.79,0,0,0-5.694-2.821,28.626,28.626,0,0,0-6.287-.37,10.462,10.462,0,0,0-9.947,4.636c-2.606,3.49-3.021,8.007-2.788,12.217.128,2.306.705,4.575,2.686,5.979,2.419,1.716,5.379,1.115,7.5-.738l-3.414-1.414c.127,2.539,1.445,4.838,4.121,5.273a5.651,5.651,0,0,0,6.424-3.5l-3.656.478c1.923,4.063,8.826,2.924,9.83-1.256l-3.656.478c1.506,3.555,6.788,2.071,8.323-.586a11.247,11.247,0,0,0,1.073-4.909c.123-1.6.3-3.192.35-4.792.074-2.575-3.926-2.573-4,0-.058,2.013-.212,4.072-.446,6.072a2.8,2.8,0,0,1-.829,2.055,2.664,2.664,0,0,1-.855.238.612.612,0,0,1-.293-.046c.156.035.341.445.131-.051-.685-1.617-3.282-1.078-3.656.478-.225.937-2.068,1.251-2.518.3-.793-1.676-3.142-1.006-3.655.478-.2.586-1.289.749-1.811.662-.729-.122-.843-.7-.877-1.37a2.026,2.026,0,0,0-3.414-1.415,1.817,1.817,0,0,1-2.981-.445,8.7,8.7,0,0,1-.439-3.272c-.124-3.1.341-6.651,2.473-9.065a7.493,7.493,0,0,1,3.118-2.263,10.813,10.813,0,0,1,3.372-.217,24.708,24.708,0,0,1,4.72.148,11.207,11.207,0,0,1,4.018,1.71c1.981,1.332,3.98,3.771,3.942,6-.045,2.575,3.955,2.575,4,0Z"/><path class="a" d="M213.63,161.371c.024-2.542.074-5.1.31-7.634a2.007,2.007,0,0,0-2-2,2.054,2.054,0,0,0-2,2c-.236,2.532-.286,5.092-.31,7.634a2,2,0,0,0,4,0Z"/><path class="a" d="M220.206,161.977a61.561,61.561,0,0,1,.263-7.978,1.985,1.985,0,0,0-.586-1.414,2,2,0,0,0-2.828,0,2.363,2.363,0,0,0-.586,1.414,61.561,61.561,0,0,0-.263,7.978,2,2,0,0,0,4,0Z"/><path class="a" d="M226.25,161.134a53.6,53.6,0,0,1,.141-6.286,2,2,0,0,0-.586-1.414,2,2,0,0,0-2.828,0,2.264,2.264,0,0,0-.586,1.414,53.6,53.6,0,0,0-.141,6.286,2,2,0,1,0,4,0Z"/><path class="a" d="M177.457,130.746c1.4,1.5,3.7,2.019,5.669,2.121a8.3,8.3,0,0,0,5.949-1.729,2.015,2.015,0,0,0,0-2.829,2.048,2.048,0,0,0-2.829,0c-.308.277.383-.243.136-.1-.107.062-.207.135-.315.2s-.562.261-.2.112-.187.063-.3.1q-.262.081-.53.141c-.117.027-.235.048-.353.071-.362.07.349-.032.085-.007a11.227,11.227,0,0,1-1.64.047c-.131-.007-.261-.016-.391-.027-.075-.007-.149-.014-.224-.023q-.234-.027.173.025a1.949,1.949,0,0,1-.659-.124c-.215-.05-.428-.108-.637-.176s-.747-.364-.163-.041c-.273-.151-.549-.284-.815-.449-.356-.222.369.333.095.076-.074-.069-.15-.135-.219-.21a2.018,2.018,0,0,0-2.829,0,2.043,2.043,0,0,0,0,2.828Z"/><path class="a" d="M181.852,117.728c-.2.788-.382,1.584-.512,2.388a3.584,3.584,0,0,0-.008,1.593,2.384,2.384,0,0,0,1.251,1.539,3.279,3.279,0,0,0,1.572.388c.338-.017.66-.1.992-.145a2.238,2.238,0,0,0,1.2-.919,2,2,0,0,0-.718-2.737l-.477-.2a2,2,0,0,0-1.064,0c-.117.016-.233.046-.35.063l.531-.072a1.3,1.3,0,0,1-.312,0l.532.072a1.49,1.49,0,0,1-.333-.095l.478.2a1.487,1.487,0,0,1-.2-.1l.405.313a.517.517,0,0,1-.082-.08l.312.4a.6.6,0,0,1-.055-.1l.2.478a.756.756,0,0,1-.039-.154l.071.531a1.583,1.583,0,0,1,.007-.344l-.071.532a23.129,23.129,0,0,1,.528-2.494,2.086,2.086,0,0,0-.2-1.541,2,2,0,0,0-3.655.478Z"/><path class="a" d="M169.3,110.744c-.512,1.435-.369,4.794,2.373,5.2,3.643.141,4.017-3.9,2.876-5.853C173.616,108.49,170.693,107.711,169.3,110.744Z"/><path class="a" d="M198.346,112.038c.383,1.475-.058,4.807-2.826,4.969-3.641-.184-3.655-4.238-2.344-6.085C194.249,109.409,197.229,108.893,198.346,112.038Z"/><path class="a" d="M230.807,155.319c16.2-.328,32.393-.666,48.592-.365,2.575.048,2.575-3.952,0-4-16.2-.3-32.4.037-48.592.365-2.57.052-2.579,4.052,0,4Z"/><path class="a" d="M159.945,156.18c12.7-.078,25.4-.04,38.094-.066,2.046,0,4.092,0,6.137-.03,2.572-.032,2.579-4.032,0-4-11.253.14-22.512.035-33.767.057q-5.232.011-10.464.039c-2.573.015-2.578,4.015,0,4Z"/><path class="a" d="M99.158,154.88c11.6.222,23.194.648,34.794.8,2.575.033,2.577-3.967,0-4-11.6-.15-23.195-.576-34.794-.8-2.575-.05-2.575,3.95,0,4Z"/></svg>